<svg width="26" height="15" viewBox="0 0 26 15" fill="none" xmlns="http://www.w3.org/2000/svg">
<path d="M14.5195 7.03126C14.5195 10.9141 11.3633 14.0625 7.46797 14.0625C6.54338 14.0637 5.6276 13.8828 4.77292 13.5302C3.91824 13.1775 3.1414 12.6599 2.48675 12.007C1.83209 11.3541 1.31245 10.5786 0.95749 9.72488C0.602529 8.87114 0.419199 7.95585 0.417969 7.03126C0.417969 3.14688 3.57422 8.50607e-06 7.46797 8.50607e-06C8.39269 -0.00142885 9.30863 0.179311 10.1635 0.531906C11.0184 0.884501 11.7954 1.40204 12.4502 2.05498C13.105 2.70791 13.6248 3.48344 13.9799 4.33728C14.3349 5.19112 14.5183 6.10654 14.5195 7.03126ZM22.2539 7.03126C22.2539 10.6875 20.6758 13.65 18.7289 13.65C16.782 13.65 15.2039 10.6859 15.2039 7.03126C15.2039 3.37501 16.782 0.412508 18.7289 0.412508C20.6758 0.412508 22.2539 3.37657 22.2539 7.03126ZM25.418 7.03126C25.418 10.3063 24.8633 12.9609 24.1773 12.9609C23.493 12.9609 22.9383 10.3047 22.9383 7.03126C22.9383 3.75626 23.493 1.10157 24.1789 1.10157C24.8633 1.10157 25.418 3.75626 25.418 7.03126Z" fill="#111111"/>
</svg>
