<svg width="25" height="24" viewBox="0 0 25 24" fill="none" xmlns="http://www.w3.org/2000/svg">
<path fill-rule="evenodd" clip-rule="evenodd" d="M9.24414 12H8.24414V11H7.24414V5H8.24414V4H9.24414V3H15.2441V4H16.2441V5H17.2441V11H16.2441V12H15.2441V13H9.24414V12ZM10.2441 7H9.24414V9H10.2441V10H11.2441V11H13.2441V10H14.2441V9H15.2441V7H14.2441V6H13.2441V5H11.2441V6H10.2441V7ZM19.2441 15V16H20.2441V21H18.2441V18H17.2441V17H16.2441V16H8.24414V17H7.24414V18H6.24414V21H4.24414V16H5.24414V15H6.24414V14H18.2441V15H19.2441Z" fill="white"/>
</svg>
