<svg width="180" height="201" viewBox="0 0 180 201" fill="none" xmlns="http://www.w3.org/2000/svg">
<path d="M45.6169 54.372L25.6717 42.8691L5.71777 54.4196L5.74371 77.4513L25.6284 88.9412V65.9743L45.6169 54.372Z" fill="#76D8A3"/>
<path d="M45.6157 54.3711L25.6445 65.9734V88.9402L45.6503 77.3941L45.6157 54.3711Z" fill="#76D8A3"/>
<path d="M50.9035 51.2937L25.6413 36.752L0.417969 51.3672L0.456872 80.5156L25.6456 95.0531L50.9425 80.4421L50.9035 51.2937ZM25.6456 39.5747L47.2854 52.0113L25.6456 64.5473L4.07935 52.0545L25.6456 39.5574V39.5747ZM2.86465 54.1727L24.4223 66.6612V91.5127L2.89924 79.1064L2.86465 54.1727ZM26.8646 91.5084V66.6785L48.4785 54.1684L48.5131 79.0329L26.8646 91.5084ZM91.5462 68.5286H89.1038V66.1035H91.5462V68.5286ZM91.5462 63.6396H89.1038V61.1972H91.5462V63.6396ZM26.9425 104.987H24.4958V102.544H26.9425V104.987ZM26.9425 100.098H24.4958V97.6554H26.9425V100.098ZM155.839 104.987H153.392V102.544H155.839V104.987ZM155.839 100.098H153.392V97.6554H155.839V100.098ZM53.0087 51.8946L51.8156 49.7635L53.9468 48.5704L55.1399 50.7015L53.0087 51.8946ZM57.2753 49.5084L56.0822 47.3773L58.2133 46.1842L59.4064 48.3153L57.2753 49.5084ZM61.5375 47.1223L60.3445 44.9911L62.4799 43.7981L63.6687 45.9292L61.5375 47.1223ZM63.1845 157.846L61.0534 156.652L62.2465 154.521L64.3776 155.714L63.1845 157.846ZM58.9223 155.464L56.7955 154.271L57.9886 152.135L60.1197 153.328L58.9223 155.464ZM54.6557 153.078L52.5246 151.867L53.7177 149.736L55.8488 150.929L54.6557 153.078ZM117.496 157.833L116.303 155.701L118.438 154.508L119.627 156.64L117.496 157.833ZM121.762 155.451L120.569 153.315L122.7 152.122L123.893 154.258L121.762 155.451ZM126.025 153.065L124.831 150.933L126.967 149.74L128.16 151.872L126.025 153.065ZM127.715 51.8816L125.579 50.7145L126.772 48.5834L128.908 49.7764L127.715 51.8816ZM123.448 49.4955L121.317 48.3024L122.51 46.1713L124.641 47.3643L123.448 49.4955ZM119.186 47.1093L117.05 45.9162L118.244 43.7851L120.375 44.9782L119.186 47.1093ZM91.5462 139.91H89.1038V137.468H91.5462V139.91ZM91.5462 135.021H89.1038V132.579H91.5462V135.021Z" fill="#76D8A3"/>
<path d="M70.4291 40.6997L70.3945 17.6637L90.3311 6.11328L110.298 17.6032L110.328 40.6392L90.3916 52.1896L70.4291 40.6997Z" fill="#76D8A3"/>
<path d="M110.368 17.6152L90.4014 29.2219V52.1887L110.338 40.6383L110.368 17.6152Z" fill="#76D8A3"/>
<path d="M115.586 14.5375L90.3239 0L65.1006 14.6109L65.1395 43.7637L90.4017 58.3011L115.625 43.6859L115.586 14.5375ZM90.3282 2.82277L111.981 15.268L90.3239 27.804L68.7576 15.3112L90.3282 2.82277ZM67.5473 17.4294L89.1611 29.9654V54.7781L67.5473 42.3501V17.4294ZM113.183 42.2723L91.6207 54.7608V29.8833L113.183 17.3905V42.2723Z" fill="#76D8A3"/>
<path d="M70.2263 42.267L69.0332 40.1316L71.1643 38.9385L72.3574 41.0739L70.2263 42.267ZM74.4885 39.8808L73.2954 37.7454L75.4309 36.5566L76.624 38.6878L74.4885 39.8808ZM110.497 42.267L108.366 41.0739L109.559 38.9385L111.69 40.1316L110.497 42.267ZM106.235 39.8808L104.099 38.6878L105.293 36.5566L107.428 37.7454L106.235 39.8808Z" fill="#76D8A3"/>
<path d="M70.4291 111.783L70.3945 88.7555L90.3311 77.2051L110.298 88.695L110.328 111.731L90.3916 123.281L70.4291 111.783Z" fill="#76D8A3"/>
<path d="M110.368 88.6992L90.4014 100.306V123.273L110.338 111.722L110.368 88.6992Z" fill="#76D8A3"/>
<path d="M90.3239 71.084L65.1006 85.6993V114.848L90.4017 129.389L115.625 114.778V85.6214L90.3239 71.084ZM90.3239 73.9067L111.964 86.3563L90.3196 98.8923L68.7533 86.3995L90.3239 73.9067ZM67.5429 88.8419L89.1568 101.071V125.862L67.5429 113.434L67.5084 88.8419H67.5429ZM91.6164 125.853V100.967L113.144 88.4961L113.178 113.365L91.6164 125.853Z" fill="#76D8A3"/>
<path d="M91.5449 88.1849H89.1025V85.7295H91.5449V88.1849ZM91.5449 83.2958H89.1025V80.8535H91.5449V83.2958ZM91.5449 78.4111H89.1025V75.9688H91.5449V78.4111Z" fill="#76D8A3"/>
<path d="M70.4291 182.865L70.3945 159.829L90.3311 148.283L110.298 159.769L110.328 182.809L90.3916 194.355L70.4291 182.865Z" fill="#76D8A3"/>
<path d="M110.368 159.787L90.4014 171.389V194.356L110.338 182.81L110.368 159.787Z" fill="#76D8A3"/>
<path d="M115.586 156.705L90.3239 142.168L65.1006 156.783L65.1395 185.932L90.4017 200.469L115.625 185.858L115.586 156.705ZM90.3282 144.991L111.968 157.445L90.3239 169.981L68.7576 157.488L90.3282 144.991ZM67.5473 159.606L89.1611 172.142V196.95L67.5473 184.522L67.5127 159.61L67.5473 159.606ZM91.6207 196.942V172.051L113.148 159.58L113.183 184.453L91.6207 196.942Z" fill="#76D8A3"/>
<path d="M91.5449 159.548H89.1025V157.101H91.5449V159.548ZM91.5449 154.659H89.1025V152.217H91.5449V154.659ZM91.5449 149.774H89.1025V147.332H91.5449V149.774Z" fill="#76D8A3"/>
<path d="M134.643 77.4517L134.604 54.4157L154.541 42.8652L174.534 54.3552V77.3955L154.532 88.9416L134.643 77.4517Z" fill="#76D8A3"/>
<path d="M174.544 54.3711L154.543 65.9734V88.9402L174.544 77.3941V54.3711Z" fill="#76D8A3"/>
<path d="M179.8 51.2937L154.538 36.752L129.314 51.3672L129.353 80.5156L154.542 95.0531L179.839 80.4421L179.8 51.2937ZM154.546 39.5747L176.182 52.0113L154.542 64.5473L132.976 52.0545L154.546 39.5574V39.5747ZM131.761 54.1727L153.319 66.6612V91.5127L131.796 79.1064L131.761 54.1727ZM155.761 91.5084V66.6784L177.375 54.1684L177.41 79.0329L155.761 91.5084Z" fill="#76D8A3"/>
<path d="M134.643 147.545L134.604 124.522L154.55 112.963L174.543 124.453V147.489L154.567 159.039L134.643 147.545Z" fill="#76D8A3"/>
<path d="M174.542 124.504L154.566 136.111V159.077L174.542 147.544V124.504Z" fill="#76D8A3"/>
<path d="M179.8 121.397L154.538 106.859L129.314 121.47L129.353 150.623L154.62 165.16L179.843 150.545L179.8 121.397ZM154.546 109.682L176.182 122.132L154.568 134.668L132.976 122.175L154.546 109.682ZM131.761 124.297L153.345 136.786L153.392 161.633L131.778 149.209L131.761 124.297ZM155.835 161.633L155.787 136.786L177.362 124.271L177.397 149.14L155.835 161.633Z" fill="#76D8A3"/>
<path d="M155.84 124.634H153.393V122.187H155.84V124.634ZM155.84 119.745H153.393V117.285H155.84V119.745ZM155.84 114.86H153.393V112.418H155.84V114.86ZM134.71 148.228L133.521 146.097L135.653 144.904L136.846 147.035L134.71 148.228ZM138.977 145.842L137.784 143.71L139.919 142.517L141.112 144.648L138.977 145.842Z" fill="#76D8A3"/>
<path d="M5.74804 147.545L5.71777 124.509L25.6717 112.963L45.6385 124.453L45.6688 147.489L25.7322 159.039L5.74804 147.545Z" fill="#76D8A3"/>
<path d="M45.6354 124.504L25.6729 136.111V159.077L45.5965 147.544L45.6354 124.504Z" fill="#76D8A3"/>
<path d="M50.9035 121.397L25.6413 106.859L0.417969 121.47L0.456872 150.623L25.7191 165.16L50.9424 150.545L50.9035 121.397ZM25.6456 109.682L47.2854 122.132L25.6456 134.668L4.07935 122.175L25.6456 109.682ZM2.86465 124.297L24.4785 136.833V161.637L2.86465 149.209V124.297ZM26.9425 161.629V136.738L48.4655 124.267L48.5001 149.136L26.9425 161.624V161.629Z" fill="#76D8A3"/>
<path d="M26.9438 124.634H24.4971V122.187H26.9438V124.634ZM26.9438 119.745H24.4971V117.285H26.9438V119.745ZM26.9438 114.86H24.4971V112.418H26.9438V114.86ZM45.9639 148.228L43.8285 147.026L45.0216 144.895L47.157 146.088L45.9639 148.228ZM41.706 145.816L39.5749 144.623L40.768 142.491L42.8991 143.685L41.706 145.816Z" fill="#76D8A3"/>
<path d="M59.4986 64.5654L41.8122 54.3652L24.1182 64.6075L24.1412 85.0308L41.7739 95.2194V74.8537L59.4986 64.5654Z" fill="white"/>
<path d="M59.4965 64.5664L41.7871 74.8547V95.2205L59.5271 84.982L59.4965 64.5664Z" fill="#F69071"/>
<path d="M64.1859 61.8363L41.7847 48.9414L19.418 61.9014L19.4525 87.7487L41.7885 100.64L64.2204 87.6835L64.1859 61.8363ZM41.7885 51.4445L60.9775 62.4726L41.7885 73.5889L22.6647 62.5109L41.7885 51.4292V51.4445ZM21.5876 64.3892L40.7037 75.4633V97.5004L21.6182 86.4991L21.5876 64.3892ZM42.8695 97.4965V75.4786L62.0354 64.3854L62.0661 86.4339L42.8695 97.4965ZM100.226 77.1192H98.0598V74.9688H100.226V77.1192ZM100.226 72.7839H98.0598V70.6181H100.226V72.7839ZM42.9385 109.448H40.7689V107.283H42.9385V109.448ZM42.9385 105.113H40.7689V102.947H42.9385V105.113ZM157.237 109.448H155.067V107.283H157.237V109.448ZM157.237 105.113H155.067V102.947H157.237V105.113ZM66.0526 62.3691L64.9947 60.4793L66.8844 59.4214L67.9424 61.3111L66.0526 62.3691ZM69.836 60.2532L68.778 58.3634L70.6678 57.3054L71.7258 59.1952L69.836 60.2532ZM73.6155 58.1372L72.5576 56.2475L74.4512 55.1895L75.5053 57.0793L73.6155 58.1372ZM75.076 156.321L73.1862 155.263L74.2442 153.373L76.1339 154.431L75.076 156.321ZM71.2965 154.209L69.4105 153.151L70.4685 151.257L72.3583 152.315L71.2965 154.209ZM67.5131 152.093L65.6233 151.019L66.6813 149.13L68.5711 150.188L67.5131 152.093ZM123.236 156.309L122.178 154.419L124.072 153.362L125.126 155.251L123.236 156.309ZM127.02 154.197L125.962 152.304L127.851 151.246L128.909 153.139L127.02 154.197ZM130.799 152.081L129.741 150.191L131.635 149.134L132.693 151.023L130.799 152.081ZM132.298 62.3576L130.404 61.3226L131.462 59.4329L133.356 60.4908L132.298 62.3576ZM128.515 60.2417L126.625 59.1837L127.683 57.2939L129.573 58.3519L128.515 60.2417ZM124.735 58.1257L122.841 57.0678L123.899 55.178L125.789 56.236L124.735 58.1257ZM100.226 140.417H98.0598V138.251H100.226V140.417ZM100.226 136.081H98.0598V133.916H100.226V136.081Z" fill="black"/>
<path d="M81.5004 52.4409L81.4697 32.0138L99.1484 21.7715L116.854 31.9601L116.881 52.3872L99.2021 62.6295L81.5004 52.4409Z" fill="white"/>
<path d="M116.916 31.9727L99.2109 42.2648V62.6306L116.89 52.3883L116.916 31.9727Z" fill="#F69071"/>
<path d="M121.543 29.2426L99.1421 16.3516L76.7754 29.3078L76.8099 55.1588L99.2111 68.0499L121.578 55.0899L121.543 29.2426ZM99.1459 18.8546L118.346 29.8904L99.1421 41.0067L80.0183 29.9288L99.1459 18.8546ZM78.945 31.807L98.111 42.9233V64.9258L78.945 53.9054V31.807ZM119.412 53.8364L100.292 64.9105V42.8505L119.412 31.7725V53.8364Z" fill="black"/>
<path d="M81.3197 53.8332L80.2617 51.9396L82.1515 50.8816L83.2094 52.7752L81.3197 53.8332ZM85.0992 51.7173L84.0413 49.8237L85.9349 48.7695L86.9928 50.6593L85.0992 51.7173ZM117.03 53.8332L115.14 52.7752L116.198 50.8816L118.088 51.9396L117.03 53.8332ZM113.25 51.7173L111.357 50.6593L112.415 48.7695L114.308 49.8237L113.25 51.7173Z" fill="black"/>
<path d="M81.5004 115.474L81.4697 95.0548L99.1484 84.8125L116.854 95.0011L116.881 115.428L99.2021 125.671L81.5004 115.474Z" fill="white"/>
<path d="M116.916 95.0059L99.2109 105.298V125.664L116.89 115.421L116.916 95.0059Z" fill="#F69071"/>
<path d="M99.1421 79.3848L76.7754 92.3448V118.192L99.2111 131.087L121.578 118.131V92.2758L99.1421 79.3848ZM99.1421 81.8878L118.331 92.9275L99.1383 104.044L80.0144 92.9658L99.1421 81.8878ZM78.9411 95.1315L98.1071 105.976V127.959L78.9411 116.939L78.9105 95.1315H78.9411ZM100.288 127.951V105.884L119.378 94.8249L119.408 116.877L100.288 127.951Z" fill="black"/>
<path d="M100.224 94.5494H98.0586V92.3722H100.224V94.5494ZM100.224 90.2141H98.0586V88.0483H100.224V90.2141ZM100.224 85.8826H98.0586V83.7168H100.224V85.8826Z" fill="black"/>
<path d="M81.5004 178.507L81.4697 158.08L99.1484 147.842L116.854 158.027L116.881 178.458L99.2021 188.696L81.5004 178.507Z" fill="white"/>
<path d="M116.916 158.041L99.2109 168.329V188.695L116.89 178.457L116.916 158.041Z" fill="#F69071"/>
<path d="M121.543 155.309L99.1421 142.418L76.7754 155.378L76.8099 181.225L99.2111 194.116L121.578 181.16L121.543 155.309ZM99.1459 144.921L118.335 155.964L99.1421 167.081L80.0183 156.003L99.1459 144.921ZM78.945 157.881L98.111 168.997V190.996L78.945 179.976L78.9143 157.885L78.945 157.881ZM100.292 190.988V168.917L119.381 157.858L119.412 179.914L100.292 190.988Z" fill="black"/>
<path d="M100.224 157.831H98.0586V155.661H100.224V157.831ZM100.224 153.495H98.0586V151.33H100.224V153.495ZM100.224 149.164H98.0586V146.998H100.224V149.164Z" fill="black"/>
<path d="M138.442 85.0307L138.407 64.6036L156.086 54.3613L173.814 64.55V84.9809L156.078 95.2194L138.442 85.0307Z" fill="white"/>
<path d="M173.824 64.5664L156.088 74.8547V95.2205L173.824 84.982V64.5664Z" fill="#F69071"/>
<path d="M178.485 61.8363L156.083 48.9414L133.717 61.9014L133.751 87.7487L156.087 100.64L178.519 87.6835L178.485 61.8363ZM156.091 51.4445L175.276 62.4726L156.087 73.5889L136.964 62.5109L156.091 51.4292V51.4445ZM135.886 64.3892L155.003 75.4633V97.5003L135.917 86.4991L135.886 64.3892ZM157.168 97.4965V75.4786L176.334 64.3854L176.365 86.4339L157.168 97.4965Z" fill="black"/>
<path d="M138.442 147.187L138.407 126.771L156.094 116.521L173.822 126.71V147.137L156.109 157.38L138.442 147.187Z" fill="white"/>
<path d="M173.823 126.756L156.109 137.048V157.414L173.823 147.187V126.756Z" fill="#F69071"/>
<path d="M178.485 123.998L156.083 111.107L133.717 124.064L133.751 149.915L156.156 162.806L178.523 149.846L178.485 123.998ZM156.091 113.61L175.276 124.65L156.11 135.766L136.964 124.688L156.091 113.61ZM135.886 126.571L155.026 137.645L155.068 159.678L135.902 148.661L135.886 126.571ZM157.233 159.678L157.191 137.645L176.323 126.548L176.353 148.6L157.233 159.678Z" fill="black"/>
<path d="M157.238 126.87H155.068V124.7H157.238V126.87ZM157.238 122.534H155.068V120.353H157.238V122.534ZM157.238 118.203H155.068V116.037H157.238V118.203ZM138.501 147.791L137.447 145.902L139.337 144.844L140.395 146.733L138.501 147.791ZM142.285 145.675L141.227 143.786L143.12 142.728L144.178 144.617L142.285 145.675Z" fill="black"/>
<path d="M24.145 147.187L24.1182 126.76L41.8122 116.521L59.5177 126.71L59.5446 147.137L41.8659 157.38L24.145 147.187Z" fill="white"/>
<path d="M59.5142 126.756L41.8125 137.048V157.414L59.4797 147.187L59.5142 126.756Z" fill="#F69071"/>
<path d="M64.1859 123.998L41.7847 111.107L19.418 124.064L19.4525 149.915L41.8537 162.806L64.2204 149.846L64.1859 123.998ZM41.7885 113.61L60.9775 124.65L41.7885 135.766L22.6647 124.688L41.7885 113.61ZM21.5876 126.571L40.7535 137.687V159.682L21.5876 148.661V126.571ZM42.9385 159.674V137.602L62.0239 126.544L62.0546 148.596L42.9385 159.67V159.674Z" fill="black"/>
<path d="M42.9391 126.87H40.7695V124.7H42.9391V126.87ZM42.9391 122.534H40.7695V120.353H42.9391V122.534ZM42.9391 118.203H40.7695V116.037H42.9391V118.203ZM59.8052 147.791L57.9116 146.726L58.9695 144.836L60.8631 145.894L59.8052 147.791ZM56.0295 145.652L54.1397 144.594L55.1977 142.705L57.0875 143.763L56.0295 145.652Z" fill="black"/>
</svg>
