<svg width="160" height="178" viewBox="0 0 160 178" fill="none" xmlns="http://www.w3.org/2000/svg">
<path d="M40.0806 48.2138L22.3942 38.0137L4.7002 48.256L4.7232 68.6792L22.3559 78.8679V58.5021L40.0806 48.2138Z" fill="white"/>
<path d="M40.0785 48.2148L22.3691 58.5031V78.8689L40.1092 68.6305L40.0785 48.2148Z" fill="#F69071"/>
<path d="M44.7679 45.4847L22.3667 32.5898L0 45.5499L0.0344974 71.3971L22.3705 84.2882L44.8024 71.332L44.7679 45.4847ZM22.3705 35.0929L41.5595 46.121L22.3705 57.2373L3.24672 46.1594L22.3705 35.0776V35.0929ZM2.16959 48.0376L21.2857 59.1117V81.1488L2.20025 70.1475L2.16959 48.0376ZM23.4515 81.145V59.1271L42.6175 48.0338L42.6481 70.0824L23.4515 81.145ZM80.8076 60.7677H78.6419V58.6173H80.8076V60.7677ZM80.8076 56.4323H78.6419V54.2666H80.8076V56.4323ZM23.5205 93.0969H21.3509V90.9311H23.5205V93.0969ZM23.5205 88.7615H21.3509V86.5958H23.5205V88.7615ZM137.819 93.0969H135.649V90.9311H137.819V93.0969ZM137.819 88.7615H135.649V86.5958H137.819V88.7615ZM46.6347 46.0175L45.5767 44.1278L47.4665 43.0698L48.5244 44.9596L46.6347 46.0175ZM50.418 43.9016L49.3601 42.0118L51.2498 40.9539L52.3078 42.8436L50.418 43.9016ZM54.1976 41.7857L53.1396 39.8959L55.0332 38.838L56.0873 40.7277L54.1976 41.7857ZM55.658 139.969L53.7683 138.911L54.8262 137.021L56.716 138.079L55.658 139.969ZM51.8785 137.857L49.9926 136.799L51.0505 134.906L52.9403 135.964L51.8785 137.857ZM48.0951 135.741L46.2054 134.668L47.2633 132.778L49.1531 133.836L48.0951 135.741ZM103.818 139.958L102.76 138.068L104.654 137.01L105.708 138.9L103.818 139.958ZM107.602 137.846L106.544 135.952L108.433 134.894L109.491 136.788L107.602 137.846ZM111.381 135.73L110.323 133.84L112.217 132.782L113.275 134.672L111.381 135.73ZM112.88 46.006L110.986 44.9711L112.044 43.0813L113.938 44.1393L112.88 46.006ZM109.097 43.8901L107.207 42.8321L108.265 40.9424L110.155 42.0003L109.097 43.8901ZM105.317 41.7742L103.423 40.7162L104.481 38.8265L106.371 39.8844L105.317 41.7742ZM80.8076 124.065H78.6419V121.9H80.8076V124.065ZM80.8076 119.73H78.6419V117.564H80.8076V119.73Z" fill="black"/>
<path d="M62.0824 36.0893L62.0518 15.6622L79.7305 5.41992L97.436 15.6086L97.4628 36.0357L79.7841 46.278L62.0824 36.0893Z" fill="white"/>
<path d="M97.4985 15.6211L79.793 25.9132V46.279L97.4717 36.0367L97.4985 15.6211Z" fill="#F69071"/>
<path d="M102.125 12.891L79.7241 0L57.3574 12.9562L57.3919 38.8073L79.7931 51.6983L102.16 38.7383L102.125 12.891ZM79.728 2.50308L98.9284 13.5389L79.7241 24.6551L60.6003 13.5772L79.728 2.50308ZM59.527 15.4555L78.693 26.5717V48.5743L59.527 37.5538V15.4555ZM99.9941 37.4848L80.8741 48.5589V26.4989L99.9941 15.421V37.4848Z" fill="black"/>
<path d="M61.9017 37.4816L60.8438 35.588L62.7335 34.5301L63.7915 36.4237L61.9017 37.4816ZM65.6812 35.3657L64.6233 33.4721L66.5169 32.418L67.5748 34.3077L65.6812 35.3657ZM97.6118 37.4816L95.722 36.4237L96.78 34.5301L98.6697 35.588L97.6118 37.4816ZM93.8322 35.3657L91.9386 34.3077L92.9966 32.418L94.8902 33.4721L93.8322 35.3657Z" fill="black"/>
<path d="M62.0824 99.1227L62.0518 78.7032L79.7305 68.4609L97.436 78.6496L97.4628 99.0767L79.7841 109.319L62.0824 99.1227Z" fill="white"/>
<path d="M97.4985 78.6543L79.793 88.9464V109.312L97.4717 99.0699L97.4985 78.6543Z" fill="#F69071"/>
<path d="M79.7241 63.0332L57.3574 75.9932V101.84L79.7931 114.735L102.16 101.779V75.9242L79.7241 63.0332ZM79.7241 65.5363L98.9131 76.5759L79.7203 87.6922L60.5965 76.6142L79.7241 65.5363ZM59.5232 78.78L78.6892 89.6241V111.607L59.5232 100.587L59.4925 78.78H59.5232ZM80.8702 111.6V89.5321L99.9596 78.4733L99.9902 100.526L80.8702 111.6Z" fill="black"/>
<path d="M80.8064 78.1978H78.6406V76.0206H80.8064V78.1978ZM80.8064 73.8625H78.6406V71.6967H80.8064V73.8625ZM80.8064 69.531H78.6406V67.3652H80.8064V69.531Z" fill="black"/>
<path d="M62.0824 162.156L62.0518 141.729L79.7305 131.49L97.436 141.675L97.4628 162.106L79.7841 172.344L62.0824 162.156Z" fill="white"/>
<path d="M97.4985 141.689L79.793 151.978V172.344L97.4717 162.105L97.4985 141.689Z" fill="#F69071"/>
<path d="M102.125 138.957L79.7241 126.066L57.3574 139.026L57.3919 164.874L79.7931 177.765L102.16 164.809L102.125 138.957ZM79.728 128.569L98.9169 139.613L79.7241 150.729L60.6003 139.651L79.728 128.569ZM59.527 141.53L78.693 152.646V174.645L59.527 163.624L59.4963 141.533L59.527 141.53ZM80.8741 174.637V152.565L99.9634 141.507L99.9941 163.563L80.8741 174.637Z" fill="black"/>
<path d="M80.8064 141.479H78.6406V139.31H80.8064V141.479ZM80.8064 137.144H78.6406V134.978H80.8064V137.144ZM80.8064 132.812H78.6406V130.646H80.8064V132.812Z" fill="black"/>
<path d="M119.024 68.6792L118.989 48.2521L136.668 38.0098L154.396 48.1984V68.6293L136.66 78.8678L119.024 68.6792Z" fill="white"/>
<path d="M154.406 48.2148L136.67 58.5031V78.8689L154.406 68.6305V48.2148Z" fill="#F69071"/>
<path d="M159.067 45.4847L136.666 32.5898L114.299 45.5499L114.333 71.3971L136.669 84.2882L159.101 71.332L159.067 45.4847ZM136.673 35.0929L155.858 46.121L136.669 57.2373L117.546 46.1594L136.673 35.0776V35.0929ZM116.468 48.0376L135.585 59.1117V81.1488L116.499 70.1475L116.468 48.0376ZM137.75 81.1449V59.1271L156.916 48.0338L156.947 70.0823L137.75 81.1449Z" fill="black"/>
<path d="M119.024 130.835L118.989 110.42L136.676 100.17L154.404 110.359V130.786L136.691 141.028L119.024 130.835Z" fill="white"/>
<path d="M154.405 110.404L136.691 120.696V141.062L154.405 130.835V110.404Z" fill="#F69071"/>
<path d="M159.067 107.647L136.666 94.7559L114.299 107.712L114.333 133.563L136.738 146.454L159.105 133.494L159.067 107.647ZM136.673 97.2589L155.858 108.299L136.692 119.415L117.546 108.337L136.673 97.2589ZM116.468 110.219L135.608 121.293L135.65 143.326L116.484 132.31L116.468 110.219ZM137.815 143.326L137.773 121.293L156.905 110.196L156.935 132.248L137.815 143.326Z" fill="black"/>
<path d="M137.82 110.518H135.651V108.349H137.82V110.518ZM137.82 106.183H135.651V104.002H137.82V106.183ZM137.82 101.851H135.651V99.6855H137.82V101.851ZM119.083 131.44L118.029 129.55L119.919 128.492L120.977 130.382L119.083 131.44ZM122.867 129.324L121.809 127.434L123.702 126.376L124.76 128.266L122.867 129.324Z" fill="black"/>
<path d="M4.72703 130.835L4.7002 110.408L22.3942 100.17L40.0998 110.359L40.1266 130.786L22.4479 141.028L4.72703 130.835Z" fill="white"/>
<path d="M40.0962 110.404L22.3945 120.696V141.062L40.0617 130.835L40.0962 110.404Z" fill="#F69071"/>
<path d="M44.7679 107.647L22.3667 94.7559L0 107.712L0.0344974 133.563L22.4357 146.454L44.8024 133.494L44.7679 107.647ZM22.3705 97.2589L41.5595 108.299L22.3705 119.415L3.24672 108.337L22.3705 97.2589ZM2.16959 110.219L21.3356 121.335V143.33L2.16959 132.31V110.219ZM23.5205 143.322V121.251L42.606 110.192L42.6366 132.245L23.5205 143.319V143.322Z" fill="black"/>
<path d="M23.5212 110.518H21.3516V108.349H23.5212V110.518ZM23.5212 106.183H21.3516V104.002H23.5212V106.183ZM23.5212 101.851H21.3516V99.6855H23.5212V101.851ZM40.3872 131.44L38.4936 130.374L39.5516 128.484L41.4452 129.542L40.3872 131.44ZM36.6115 129.301L34.7218 128.243L35.7797 126.353L37.6695 127.411L36.6115 129.301Z" fill="black"/>
</svg>
