<svg width="205" height="198" viewBox="0 0 205 198" fill="none" xmlns="http://www.w3.org/2000/svg">
<path d="M147.622 31.9352C138.53 30.8255 121.527 3.5541 101.057 4.66382C80.6541 5.77751 73.7857 20.5566 63.5842 27.3576C53.3827 34.1586 4.53125 33.0489 4.53125 65.9441C4.53125 98.8394 37.4265 95.4389 37.4265 95.4389V172.608C106.681 195.302 156.646 172.608 156.646 172.608V94.3252C183.917 87.5242 193.009 61.43 182.74 44.3601C172.471 27.2902 156.646 33.0489 147.622 31.9352Z" fill="#E38A8A"/>
<path d="M147.618 31.8475C138.855 30.7339 122.65 5.23011 103.083 4.57617C109.293 9.80771 114.069 16.8624 115.575 24.8484C117.537 35.1172 113.217 46.8208 104.129 51.989C99.8765 54.4105 94.9065 55.326 90.7213 57.9339C86.5361 60.4823 83.2664 65.7812 85.4263 70.2201C87.3208 74.1437 92.3581 75.3208 96.7376 75.19C101.117 75.0592 105.631 74.2071 109.686 75.9827C114.656 78.1387 117.406 84.3531 115.769 89.5213C114.132 94.6894 108.378 98.1533 103.015 97.3686C101.43 97.107 99.8765 96.5759 98.307 96.8454C96.7217 97.1704 95.2989 98.8271 95.9528 100.246C104.323 100.642 112.04 105.933 116.36 113.127C120.739 120.261 121.984 129.019 121.001 137.39C120.739 139.482 120.347 141.575 119.17 143.275C117.862 145.305 115.638 146.545 113.478 147.528C98.7668 154.396 81.3045 154.135 67.2428 162.244C65.4791 163.29 63.7115 164.467 62.6018 166.1C61.2265 168.082 60.7707 170.483 60.7034 172.837C60.6568 174.884 60.8767 176.928 61.3573 178.917C117.993 190.3 156.773 172.639 156.773 172.639V94.2376C184.045 87.4326 193.137 61.3423 182.868 44.2724C172.599 27.2699 156.643 32.9573 147.618 31.8475Z" fill="#E38A8A"/>
<path d="M159.197 27.2821C157.56 27.2821 155.991 27.3495 154.489 27.4129C153.181 27.4802 151.936 27.4802 150.827 27.4802C149.78 27.4802 148.928 27.4129 148.211 27.3495C146.249 27.0879 141.343 22.6411 137.352 19.0266C128.002 10.5253 116.346 0.00278715 102.364 0.00278715C101.862 -0.00840196 101.36 0.0141066 100.862 0.0701623C84.7073 0.985681 76.0079 9.61771 69.0127 16.5495C66.3295 19.2326 63.7811 21.781 61.0861 23.5487C59.0609 24.92 53.2388 26.2278 47.6109 27.4723C38.3884 29.5649 26.9464 32.1807 17.593 37.4756C5.95286 44.0824 0 53.6974 0 65.9241C0 82.6016 7.8473 90.8928 14.4541 94.8957C20.9935 98.8194 28.2543 99.8657 32.8953 100.048V172.663C32.8895 173.625 33.1924 174.564 33.7596 175.34C34.3267 176.117 35.1282 176.692 36.0461 176.979C56.9088 183.848 78.1639 187.312 99.1574 187.312C135.061 187.312 157.624 177.241 158.539 176.785C159.345 176.423 160.027 175.834 160.503 175.09C160.979 174.346 161.228 173.479 161.219 172.596V97.781C173.972 93.6631 183.849 85.0311 188.565 73.6486C192.925 63.0547 192.227 51.2837 186.734 41.9978C178.883 28.9744 167.893 27.2821 159.197 27.2821ZM180.123 70.1926C176.132 79.8075 167.175 87.0008 155.599 89.9416C154.614 90.1948 153.741 90.7661 153.115 91.5666C152.488 92.3672 152.144 93.3522 152.135 94.3686V169.671C145.464 172.156 126.77 178.109 100.271 178.303C87.5212 176.995 71.4303 172.612 86.9981 162.216C106.486 149.268 145.726 164.372 145.726 164.372C145.726 164.372 125.513 152.879 88.7617 153.909C63.7138 154.611 48.8673 160.555 41.9355 164.293V111.91C41.9355 105.367 39.3871 96.8021 47.9518 94.5113C52.4025 93.3223 57.0436 94.7094 61.4904 95.7558C69.2255 97.5395 77.1738 98.2213 85.0997 97.781C83.1974 96.778 81.5705 95.3232 80.3619 93.5445C79.1532 91.7657 78.3998 89.7175 78.1679 87.5795C86.6057 94.5113 98.7017 96.6713 108.971 93.1281C113.219 91.6894 117.21 89.2679 121.653 88.6813C120.607 89.6602 119.497 90.5757 118.451 91.5586C130.936 94.1346 143.934 91.8677 154.81 85.2174C146.78 88.6752 137.905 89.6765 129.306 88.0947C128.716 87.9639 127.931 87.7697 127.8 87.1792C127.606 86.4618 128.26 85.8079 128.846 85.3482C131.929 82.841 134.111 79.3974 135.061 75.539C130.159 79.2088 125.049 82.5938 119.759 85.6771C116.552 87.5082 113.283 89.2718 109.751 90.1239C106.482 90.9166 103.081 90.9166 99.6806 90.6471C87.0044 89.5605 74.9809 84.5544 65.2793 76.3238C65.3425 79.0007 66.0322 81.6255 67.2931 83.9877C68.554 86.3498 70.3511 88.3836 72.54 89.9258C73.9787 90.9721 75.8097 92.2165 75.5481 93.9168C64.6253 93.066 53.725 91.9761 42.8471 90.6471C34.4132 89.6008 27.1525 92.0857 19.2417 87.2466C12.5715 83.2001 9.17104 76.1375 9.17104 66.1302C9.17104 53.3763 18.8533 46.183 29.8396 42.0612C43.0492 37.0912 56.2588 44.4827 64.5659 55.0766C60.2499 49.528 57.8283 41.538 61.4904 35.5891C63.7811 31.927 67.7682 29.9652 70.9745 27.2187C73.9153 24.7971 76.4676 21.9871 79.345 19.4348C85.6862 13.6801 92.6854 9.81984 101.448 9.29669H102.431C114.658 9.29669 129.897 21.5274 135.259 31.9905C136.844 35.066 138.204 38.2049 138.858 41.6054C139.512 44.9385 139.313 48.5372 137.811 51.6761C140.15 50.2407 142.065 48.2095 143.36 45.7906C144.549 43.6306 145.258 41.0149 147.157 39.5128C148.123 38.8262 149.179 38.2755 150.296 37.8759C160.497 33.8215 173.184 37.3528 179.006 46.9043C182.937 53.5071 183.393 62.266 180.123 70.1926Z" fill="#E38A8A"/>
<path d="M154.028 97.7379C154.821 94.0758 155.273 90.1522 153.965 86.6209C152.657 83.0896 149.256 80.1488 145.527 80.4738C146.499 84.681 147.047 88.9748 147.164 93.2911C147.227 95.1895 147.164 97.0839 146.442 98.8397C145.253 101.78 142.455 103.746 141.144 106.624C144.481 106.818 147.881 107.079 151.218 106.556C154.555 106.033 157.888 104.725 160.243 102.304C161.092 101.378 161.817 100.346 162.399 99.232C158.886 100.497 155.246 101.374 151.543 101.848C153.049 101.273 153.703 99.3747 154.028 97.7379Z" fill="#E38A8A"/>
<path d="M30.2288 79.4821C28.8376 78.3289 27.7583 76.8448 27.0898 75.1661C25.7518 72.1496 25.2061 68.8415 25.5045 65.5551C25.6353 64.2472 25.9008 62.872 25.7661 61.5641C25.6313 60.2562 24.9734 58.8175 23.7369 58.2944C22.1516 57.573 20.2056 58.4251 19.2227 59.8797C18.1764 61.3183 17.9148 63.086 17.5898 64.7862C17.0667 68.1867 16.4762 71.718 17.3917 74.9877C18.977 80.5363 24.3274 84.2737 29.6779 86.3663C37.3326 89.4196 45.6652 90.368 53.8103 89.1129C47.2669 86.5605 40.7315 84.0755 34.1881 81.5271C32.787 81.0159 31.4566 80.3287 30.2288 79.4821Z" fill="#E38A8A"/>
<path d="M72.8067 31.9397C70.3217 34.8845 68.031 38.0868 66.9212 41.7489C65.4826 46.7188 66.3307 52.2793 68.8157 56.8569C71.3007 61.4345 75.2243 65.0966 79.6711 67.7797C76.1172 62.8282 73.4006 57.3266 71.6296 51.4946C71.3681 50.5117 71.1065 49.402 71.6296 48.5499C72.4223 47.3094 74.3762 47.3609 75.2917 46.1957C76.5996 44.4954 74.5704 42.1412 74.5704 39.9852C74.5704 38.285 75.8783 36.8463 77.2535 35.8634C78.6288 34.8805 80.1982 34.0324 81.2446 32.6611C82.2909 31.2898 82.4851 29.1298 81.1772 28.0161C78.169 26.839 74.9628 29.3913 72.8067 31.9397Z" fill="#E38A8A"/>
<path d="M164.512 55.3146C156.166 54.2959 140.558 29.2616 121.767 30.2803C103.038 31.3026 96.7328 44.8694 87.3681 51.1125C78.0034 57.3556 33.1592 56.3369 33.1592 86.5338C33.1592 116.731 63.3561 113.609 63.3561 113.609V184.448C126.93 205.28 172.796 184.448 172.796 184.448V112.587C197.831 106.344 206.177 82.3899 196.75 66.7203C187.323 51.0506 172.796 56.3369 164.512 55.3146Z" fill="white"/>
<path d="M164.511 55.2355C156.467 54.2132 141.59 30.8015 123.628 30.2012C129.329 35.0036 133.713 41.4795 135.096 48.8105C136.897 58.237 132.931 68.9805 124.589 73.7247C120.685 75.9477 116.123 76.7881 112.281 79.182C108.439 81.5214 105.437 86.3856 107.42 90.4604C109.159 94.0622 113.783 95.1427 117.804 95.0226C121.824 94.9026 125.968 94.1204 129.69 95.7503C134.252 97.7295 136.777 103.434 135.274 108.178C133.772 112.923 128.489 116.102 123.567 115.382C122.111 115.142 120.685 114.654 119.244 114.902C117.789 115.2 116.483 116.721 117.083 118.023C124.767 118.387 131.851 123.244 135.816 129.847C139.836 136.396 140.979 144.436 140.077 152.12C139.836 154.041 139.476 155.962 138.396 157.523C137.195 159.386 135.154 160.524 133.171 161.427C119.666 167.732 103.637 167.492 90.7283 174.935C89.1093 175.896 87.4867 176.976 86.468 178.475C85.2056 180.294 84.7872 182.499 84.7253 184.66C84.6826 186.539 84.8844 188.415 85.3256 190.241C137.315 200.69 172.915 184.478 172.915 184.478V112.508C197.949 106.261 206.295 82.3108 196.869 66.6412C187.442 51.0334 172.795 56.2542 164.511 55.2355Z" fill="#C0A2CD"/>
<path d="M175.138 51.0442C173.636 51.0442 172.195 51.106 170.816 51.1642C169.616 51.2261 168.473 51.2261 167.455 51.2261C166.494 51.2261 165.712 51.1642 165.053 51.106C163.253 50.8659 158.748 46.7838 155.085 43.4658C146.502 35.6619 135.802 26.0026 122.967 26.0026C122.506 25.9923 122.046 26.0129 121.588 26.0644C106.759 26.9048 98.773 34.8288 92.3516 41.192C89.8886 43.655 87.5492 45.9944 85.0753 47.617C83.2162 48.8758 77.8717 50.0764 72.7055 51.2188C64.2394 53.1398 53.736 55.5409 45.1499 60.4016C34.4645 66.4664 29 75.2926 29 86.5164C29 101.826 36.2036 109.437 42.2684 113.112C48.2714 116.713 54.9366 117.674 59.1969 117.841V184.5C59.1916 185.383 59.4697 186.244 59.9903 186.957C60.5109 187.671 61.2466 188.198 62.0893 188.462C81.2406 194.767 100.752 197.947 120.024 197.947C152.982 197.947 173.694 188.702 174.535 188.284C175.274 187.951 175.9 187.41 176.337 186.727C176.774 186.044 177.002 185.249 176.994 184.438V115.76C188.702 111.98 197.768 104.056 202.097 93.6072C206.099 83.8824 205.459 73.077 200.417 64.5527C193.209 52.5977 183.121 51.0442 175.138 51.0442ZM194.348 90.4347C190.684 99.261 182.462 105.864 171.835 108.564C170.931 108.796 170.13 109.321 169.555 110.055C168.98 110.79 168.663 111.695 168.655 112.628V181.753C162.532 184.034 145.371 189.499 121.046 189.677C109.342 188.476 94.5709 184.453 108.862 174.91C126.751 163.024 162.772 176.889 162.772 176.889C162.772 176.889 144.218 166.338 110.481 167.284C87.4874 167.928 73.8588 173.385 67.4956 176.816V128.73C67.4956 122.724 65.1562 114.861 73.0183 112.759C77.104 111.667 81.3643 112.941 85.4464 113.901C92.547 115.538 99.8433 116.164 107.119 115.76C105.373 114.839 103.879 113.504 102.77 111.871C101.66 110.238 100.969 108.358 100.756 106.395C108.502 112.759 119.605 114.741 129.032 111.489C132.932 110.168 136.596 107.945 140.674 107.407C139.713 108.305 138.695 109.146 137.734 110.048C149.195 112.413 161.127 110.332 171.111 104.227C163.739 107.401 155.593 108.32 147.699 106.868C147.157 106.748 146.437 106.57 146.317 106.028C146.139 105.369 146.739 104.769 147.277 104.347C150.107 102.046 152.11 98.8845 152.982 95.3426C148.482 98.7114 143.792 101.819 138.935 104.649C135.992 106.33 132.99 107.949 129.749 108.731C126.747 109.459 123.625 109.459 120.504 109.211C108.868 108.214 97.8303 103.618 88.9245 96.063C88.9825 98.5203 89.6156 100.93 90.7731 103.098C91.9306 105.267 93.5802 107.134 95.5896 108.549C96.9103 109.51 98.5911 110.652 98.351 112.213C88.3242 111.432 78.318 110.431 68.3324 109.211C60.5903 108.251 53.9252 110.532 46.6634 106.09C40.5403 102.375 37.4188 95.892 37.4188 86.7056C37.4188 74.9979 46.3068 68.3946 56.3919 64.6109C68.5179 60.0487 80.644 66.8339 88.2696 76.5587C84.3076 71.4653 82.0847 64.1307 85.4464 58.6698C87.5492 55.3081 91.2093 53.5072 94.1525 50.9859C96.8521 48.763 99.1951 46.1835 101.836 43.8406C107.657 38.5579 114.082 35.0143 122.127 34.5341H123.029C134.253 34.5341 148.241 45.7615 153.164 55.3663C154.619 58.1895 155.867 61.071 156.467 64.1925C157.068 67.2523 156.886 70.5557 155.507 73.4372C157.653 72.1195 159.411 70.2549 160.6 68.0345C161.692 66.0517 162.343 63.6505 164.086 62.2716C164.973 61.6414 165.942 61.1358 166.967 60.769C176.332 57.0472 187.978 60.2888 193.322 69.0568C196.931 75.118 197.35 83.1584 194.348 90.4347Z" fill="#010101"/>
<path d="M170.394 115.72C171.122 112.358 171.537 108.757 170.336 105.515C169.135 102.273 166.014 99.5739 162.59 99.8722C163.482 103.734 163.986 107.676 164.093 111.638C164.151 113.381 164.093 115.12 163.431 116.732C162.339 119.431 159.771 121.236 158.566 123.877C161.63 124.055 164.751 124.295 167.815 123.815C170.878 123.335 173.938 122.134 176.099 119.911C176.879 119.062 177.544 118.114 178.078 117.092C174.854 118.253 171.512 119.058 168.113 119.493C169.496 118.965 170.096 117.223 170.394 115.72Z" fill="#010101"/>
<path d="M56.7508 98.9629C55.4738 97.9043 54.483 96.542 53.8694 95.0009C52.6411 92.2319 52.1402 89.1951 52.4141 86.1783C52.5342 84.9777 52.7779 83.7153 52.6542 82.5147C52.5305 81.3141 51.9266 79.9934 50.7915 79.5132C49.3362 78.851 47.5499 79.6332 46.6476 80.9684C45.6871 82.2891 45.447 83.9117 45.1487 85.4725C44.6684 88.5941 44.1263 91.8357 44.9668 94.8372C46.422 99.9306 51.3336 103.361 56.2451 105.282C63.2719 108.085 70.921 108.956 78.398 107.804C72.3914 105.461 66.392 103.18 60.3854 100.84C59.0992 100.371 57.8779 99.74 56.7508 98.9629Z" fill="#010101"/>
<path d="M95.8339 55.3183C93.5527 58.0214 91.4499 60.9611 90.4312 64.3228C89.1105 68.885 89.8891 73.9894 92.1702 78.1915C94.4514 82.3936 98.0532 85.7553 102.135 88.2183C98.8728 83.673 96.379 78.6227 94.7533 73.2691C94.5132 72.3668 94.2731 71.3481 94.7533 70.5659C95.481 69.4271 97.2746 69.4744 98.115 68.4048C99.3156 66.844 97.4529 64.6829 97.4529 62.7038C97.4529 61.143 98.6535 59.8223 99.9159 58.9201C101.178 58.0178 102.619 57.2392 103.58 55.9804C104.54 54.7216 104.718 52.7388 103.518 51.7165C100.756 50.6359 97.813 52.9789 95.8339 55.3183Z" fill="#010101"/>
</svg>
