<svg width="176" height="172" viewBox="0 0 176 172" fill="none" xmlns="http://www.w3.org/2000/svg">
<path d="M135.512 29.3146C127.166 28.2959 111.558 3.26157 92.7671 4.28026C74.0377 5.30259 67.7328 18.8694 58.3681 25.1125C49.0034 31.3556 4.15918 30.3369 4.15918 60.5338C4.15918 90.7307 34.3561 87.6092 34.3561 87.6092V158.448C97.9297 179.28 143.796 158.448 143.796 158.448V86.5868C168.831 80.3437 177.177 56.3899 167.75 40.7203C158.323 25.0506 143.796 30.3369 135.512 29.3146Z" fill="white"/>
<path d="M135.511 29.2355C127.467 28.2132 112.59 4.80147 94.6284 4.20117C100.329 9.00357 104.713 15.4795 106.096 22.8105C107.897 32.237 103.931 42.9805 95.5889 47.7247C91.6851 49.9477 87.1228 50.7881 83.2809 53.182C79.439 55.5214 76.4375 60.3856 78.4203 64.4604C80.1594 68.0622 84.7835 69.1427 88.8037 69.0226C92.8239 68.9026 96.9677 68.1204 100.69 69.7503C105.252 71.7295 107.777 77.4341 106.274 82.1783C104.772 86.9225 99.489 90.1023 94.5666 89.3819C93.1113 89.1418 91.6851 88.6543 90.2444 88.9017C88.7891 89.2 87.483 90.7208 88.0833 92.0232C95.7672 92.387 102.851 97.244 106.816 103.847C110.836 110.396 111.979 118.436 111.077 126.12C110.836 128.041 110.476 129.962 109.396 131.523C108.195 133.386 106.154 134.524 104.171 135.427C90.6664 141.732 74.6366 141.492 61.7283 148.935C60.1093 149.896 58.4867 150.976 57.468 152.475C56.2056 154.294 55.7872 156.499 55.7253 158.66C55.6826 160.539 55.8844 162.415 56.3256 164.241C108.315 174.69 143.915 158.478 143.915 158.478V86.5078C168.949 80.261 177.295 56.3108 167.869 40.6412C158.442 25.0334 143.795 30.2542 135.511 29.2355Z" fill="#C0A2CD"/>
<path d="M146.138 25.0442C144.636 25.0442 143.195 25.106 141.816 25.1642C140.616 25.2261 139.473 25.2261 138.455 25.2261C137.494 25.2261 136.712 25.1642 136.053 25.106C134.253 24.8659 129.748 20.7838 126.085 17.4658C117.502 9.66193 106.802 0.00255852 93.9669 0.00255852C93.5064 -0.00771276 93.0458 0.0129494 92.5881 0.0644069C77.7588 0.904827 69.773 8.82878 63.3516 15.192C60.8886 17.655 58.5492 19.9944 56.0753 21.617C54.2162 22.8758 48.8717 24.0764 43.7055 25.2188C35.2394 27.1398 24.736 29.5409 16.1499 34.4016C5.46455 40.4664 0 49.2926 0 60.5164C0 75.8259 7.2036 83.437 13.2684 87.1115C19.2714 90.7133 25.9366 91.6738 30.1969 91.8411V158.5C30.1916 159.383 30.4697 160.244 30.9903 160.957C31.5109 161.671 32.2466 162.198 33.0893 162.462C52.2406 168.767 71.7522 171.947 91.0236 171.947C123.982 171.947 144.694 162.702 145.535 162.284C146.274 161.951 146.9 161.41 147.337 160.727C147.774 160.044 148.002 159.249 147.994 158.438V89.7601C159.702 85.98 168.768 78.0561 173.097 67.6072C177.099 57.8824 176.459 47.077 171.417 38.5527C164.209 26.5977 154.121 25.0442 146.138 25.0442ZM165.348 64.4347C161.684 73.261 153.462 79.8643 142.835 82.5638C141.931 82.7962 141.13 83.3206 140.555 84.0555C139.98 84.7904 139.663 85.6946 139.655 86.6276V155.753C133.532 158.034 116.371 163.499 92.046 163.677C80.3419 162.476 65.5709 158.453 79.8617 148.91C97.7506 137.024 133.772 150.889 133.772 150.889C133.772 150.889 115.218 140.338 81.4807 141.284C58.4874 141.928 44.8588 147.385 38.4956 150.816V102.73C38.4956 96.7236 36.1562 88.8615 44.0183 86.7586C48.104 85.6672 52.3643 86.9405 56.4464 87.901C63.547 89.5384 70.8433 90.1643 78.119 89.7601C76.3728 88.8394 74.8793 87.504 73.7699 85.8711C72.6604 84.2383 71.9688 82.358 71.7558 80.3954C79.5015 86.7586 90.6053 88.7414 100.032 85.4889C103.932 84.1682 107.596 81.9453 111.674 81.4068C110.713 82.3055 109.695 83.1459 108.734 84.0482C120.195 86.4128 132.127 84.3319 142.111 78.2271C134.739 81.4013 126.593 82.3204 118.699 80.8684C118.157 80.7483 117.437 80.5701 117.317 80.028C117.139 79.3695 117.739 78.7692 118.277 78.3471C121.107 76.0457 123.11 72.8845 123.982 69.3426C119.482 72.7114 114.792 75.8187 109.935 78.6491C106.992 80.3299 103.99 81.9489 100.749 82.7312C97.747 83.4588 94.6254 83.4588 91.5039 83.2114C79.8675 82.2139 68.8303 77.6185 59.9245 70.063C59.9825 72.5203 60.6156 74.9298 61.7731 77.0982C62.9306 79.2666 64.5802 81.1336 66.5896 82.5492C67.9103 83.5097 69.5911 84.6521 69.351 86.2129C59.3242 85.4319 49.318 84.4314 39.3324 83.2114C31.5903 82.2509 24.9252 84.5321 17.6634 80.0898C11.5403 76.3752 8.41875 69.892 8.41875 60.7056C8.41875 48.9979 17.3068 42.3946 27.3919 38.6109C39.5179 34.0487 51.644 40.8339 59.2696 50.5587C55.3076 45.4653 53.0847 38.1307 56.4464 32.6698C58.5492 29.3081 62.2093 27.5072 65.1525 24.9859C67.8521 22.763 70.1951 20.1835 72.8364 17.8406C78.6575 12.5579 85.0825 9.01433 93.1265 8.53409H94.0288C105.253 8.53409 119.241 19.7615 124.164 29.3663C125.619 32.1895 126.867 35.071 127.467 38.1925C128.068 41.2523 127.886 44.5557 126.507 47.4372C128.653 46.1195 130.411 44.2549 131.6 42.0345C132.692 40.0517 133.343 37.6505 135.086 36.2716C135.973 35.6414 136.942 35.1358 137.967 34.769C147.332 31.0472 158.978 34.2888 164.322 43.0568C167.931 49.118 168.35 57.1584 165.348 64.4347Z" fill="#010101"/>
<path d="M141.394 89.7201C142.122 86.3584 142.537 82.7566 141.336 79.515C140.135 76.2734 137.014 73.5739 133.59 73.8722C134.482 77.7342 134.986 81.6758 135.093 85.6381C135.151 87.3808 135.093 89.1198 134.431 90.7315C133.339 93.431 130.771 95.2356 129.566 97.8769C132.63 98.0552 135.751 98.2953 138.815 97.8151C141.878 97.3348 144.938 96.1342 147.099 93.9113C147.879 93.0619 148.544 92.114 149.078 91.0917C145.854 92.2526 142.512 93.0577 139.113 93.4929C140.496 92.9654 141.096 91.2227 141.394 89.7201Z" fill="#010101"/>
<path d="M27.7508 72.9629C26.4738 71.9043 25.483 70.542 24.8694 69.0009C23.6411 66.2319 23.1402 63.1951 23.4141 60.1783C23.5342 58.9777 23.7779 57.7153 23.6542 56.5147C23.5305 55.3141 22.9266 53.9934 21.7915 53.5132C20.3362 52.851 18.5499 53.6332 17.6476 54.9684C16.6871 56.2891 16.447 57.9117 16.1487 59.4725C15.6684 62.5941 15.1263 65.8357 15.9668 68.8372C17.422 73.9306 22.3336 77.3614 27.2451 79.2824C34.2719 82.0853 41.921 82.9558 49.398 81.8037C43.3914 79.4607 37.392 77.1795 31.3854 74.8402C30.0992 74.3709 28.8779 73.74 27.7508 72.9629Z" fill="#010101"/>
<path d="M66.8339 29.3183C64.5527 32.0214 62.4499 34.9611 61.4312 38.3228C60.1105 42.885 60.8891 47.9894 63.1702 52.1915C65.4514 56.3936 69.0532 59.7553 73.1352 62.2183C69.8728 57.673 67.379 52.6227 65.7533 47.2691C65.5132 46.3668 65.2731 45.3481 65.7533 44.5659C66.481 43.4271 68.2746 43.4744 69.115 42.4048C70.3156 40.844 68.4529 38.6829 68.4529 36.7038C68.4529 35.143 69.6535 33.8223 70.9159 32.9201C72.1784 32.0178 73.6191 31.2392 74.5795 29.9804C75.54 28.7216 75.7183 26.7388 74.5177 25.7165C71.7563 24.6359 68.813 26.9789 66.8339 29.3183Z" fill="#010101"/>
</svg>
