<?xml version="1.0" standalone="no"?>
<!DOCTYPE svg PUBLIC "-//W3C//DTD SVG 20010904//EN"
 "http://www.w3.org/TR/2001/REC-SVG-20010904/DTD/svg10.dtd">
<svg version="1.0" xmlns="http://www.w3.org/2000/svg"
 width="500.000000pt" height="500.000000pt" viewBox="0 0 500.000000 500.000000"
 preserveAspectRatio="xMidYMid meet">

<g transform="translate(0.000000,500.000000) scale(0.100000,-0.100000)"
fill="#000000" stroke="none">
<path d="M783 4586 c-131 -32 -271 -142 -326 -256 -60 -125 -57 -21 -57 -1830
0 -1454 2 -1663 15 -1715 48 -187 201 -336 383 -374 37 -8 538 -11 1705 -11
1808 0 1703 -3 1827 58 118 58 231 207 259 340 16 75 16 3329 0 3404 -39 185
-202 348 -387 387 -81 17 -3349 14 -3419 -3z m3449 -219 c64 -32 111 -80 142
-146 l21 -46 3 -1662 c2 -1646 2 -1662 -18 -1716 -27 -73 -79 -130 -148 -164
l-57 -28 -437 -3 -438 -3 0 701 0 700 189 0 c172 0 190 2 195 18 6 18 136 667
136 676 0 4 -117 6 -260 6 l-260 0 0 123 c0 67 4 127 8 134 18 29 71 37 280
41 l212 4 0 282 0 281 -42 19 c-176 77 -338 110 -543 110 -150 0 -165 -2 -240
-28 -115 -40 -181 -80 -260 -160 -86 -87 -146 -197 -182 -334 -21 -81 -26
-128 -30 -284 l-6 -188 -148 0 -149 0 0 -350 0 -350 150 0 150 0 0 -700 0
-700 -837 2 -838 3 -57 28 c-69 34 -121 91 -148 164 -20 53 -20 76 -20 1697 0
1800 -3 1697 59 1783 37 50 81 83 146 105 47 16 154 17 1710 15 l1660 -2 57
-28z m-767 -896 c44 -11 92 -24 108 -30 l27 -11 0 -113 0 -114 -127 -6 c-182
-7 -258 -36 -319 -119 -46 -62 -54 -113 -54 -355 l0 -223 241 0 c224 0 240 -1
235 -17 -6 -20 -56 -264 -56 -275 0 -5 -94 -8 -210 -8 l-210 0 0 -800 0 -800
-200 0 -200 0 0 800 0 800 -150 0 -150 0 0 150 0 150 149 0 149 0 5 278 c4
301 9 336 68 461 36 78 86 141 142 180 40 27 135 65 187 75 56 11 287 -4 365
-23z"/>
</g>
</svg>
