<svg width="29" height="28" viewBox="0 0 29 28" fill="none" xmlns="http://www.w3.org/2000/svg">
<path fill-rule="evenodd" clip-rule="evenodd" d="M14.418 0C6.68297 0 0.417969 6.42347 0.417969 14.3541C0.417969 20.7058 4.42547 26.0707 9.99047 27.9726C10.6905 28.0982 10.953 27.6676 10.953 27.2908C10.953 26.9498 10.9355 25.8195 10.9355 24.6173C7.41797 25.2812 6.50797 23.7381 6.22797 22.9307C6.07047 22.518 5.38797 21.2441 4.79297 20.9032C4.30297 20.634 3.60297 19.9702 4.77547 19.9522C5.87797 19.9343 6.66547 20.9929 6.92797 21.4235C8.18797 23.5946 10.2005 22.9845 11.0055 22.6077C11.128 21.6747 11.4955 21.0467 11.898 20.6879C8.78297 20.329 5.52797 19.091 5.52797 13.6005C5.52797 12.0395 6.07047 10.7476 6.96297 9.74286C6.82297 9.384 6.33297 7.91271 7.10297 5.93901C7.10297 5.93901 8.27547 5.56222 10.953 7.41031C12.073 7.08734 13.263 6.92586 14.453 6.92586C15.643 6.92586 16.833 7.08734 17.953 7.41031C20.6305 5.54428 21.803 5.93901 21.803 5.93901C22.573 7.91271 22.083 9.384 21.943 9.74286C22.8355 10.7476 23.378 12.0216 23.378 13.6005C23.378 19.1089 20.1055 20.329 16.9905 20.6879C17.498 21.1364 17.9355 21.9977 17.9355 23.3434C17.9355 25.2632 17.918 26.8063 17.918 27.2908C17.918 27.6676 18.1805 28.1161 18.8805 27.9726C21.6597 27.0106 24.0748 25.1792 25.7857 22.7362C27.4966 20.2933 28.4172 17.3617 28.418 14.3541C28.418 6.42347 22.153 0 14.418 0Z" fill="black"/>
</svg>
