<svg width="32" height="31" viewBox="0 0 32 31" fill="none" xmlns="http://www.w3.org/2000/svg">
<path fill-rule="evenodd" clip-rule="evenodd" d="M15.918 3.875C12.7606 3.875 12.3654 3.88818 11.1254 3.94475C9.88769 4.00132 9.04217 4.19817 8.30282 4.4857C7.52782 4.7771 6.82489 5.23435 6.24364 5.82645C5.65249 6.40703 5.19496 7.10946 4.90289 7.88485C4.61692 8.6242 4.41929 9.4705 4.36272 10.7082C4.30692 11.9474 4.29297 12.3419 4.29297 15.5C4.29297 18.6581 4.30614 19.0526 4.36272 20.2926C4.41929 21.5303 4.61614 22.3758 4.90367 23.1152C5.19507 23.8902 5.65232 24.5931 6.24442 25.1743C6.82501 25.7655 7.52744 26.223 8.30282 26.5151C9.04217 26.8018 9.88769 26.9987 11.1254 27.0552C12.3654 27.1118 12.7606 27.125 15.918 27.125C19.0753 27.125 19.4706 27.1118 20.7106 27.0552C21.9482 26.9987 22.7938 26.8018 23.5331 26.5143C24.3081 26.2229 25.011 25.7656 25.5923 25.1735C26.1834 24.593 26.641 23.8905 26.933 23.1152C27.2198 22.3758 27.4166 21.5303 27.4732 20.2926C27.5298 19.0526 27.543 18.6573 27.543 15.5C27.543 12.3426 27.5298 11.9474 27.4732 10.7074C27.4166 9.46972 27.2198 8.6242 26.9323 7.88485C26.6404 7.10912 26.1829 6.4064 25.5915 5.82567C25.0109 5.23452 24.3085 4.77699 23.5331 4.48492C22.7938 4.19895 21.9475 4.00132 20.7098 3.94475C19.4706 3.88895 19.0761 3.875 15.918 3.875ZM15.918 5.96983C19.0218 5.96983 19.39 5.98145 20.616 6.03725C21.7491 6.08917 22.3644 6.2775 22.7744 6.43792C23.3169 6.64795 23.7044 6.9006 24.1113 7.3067C24.5181 7.71357 24.77 8.10107 24.98 8.64357C25.1397 9.05355 25.3288 9.6689 25.3807 10.8019C25.4365 12.028 25.4481 12.3961 25.4481 15.5C25.4481 18.6039 25.4365 18.972 25.3807 20.198C25.3288 21.3311 25.1405 21.9464 24.98 22.3564C24.794 22.8614 24.4971 23.3182 24.1113 23.6933C23.7362 24.0792 23.2794 24.3761 22.7744 24.5621C22.3644 24.7217 21.7491 24.9108 20.616 24.9627C19.39 25.0185 19.0226 25.0302 15.918 25.0302C12.8133 25.0302 12.446 25.0185 11.2199 24.9627C10.0869 24.9108 9.47152 24.7225 9.06154 24.5621C8.5566 24.376 8.09977 24.0792 7.72467 23.6933C7.33886 23.3182 7.04199 22.8613 6.85589 22.3564C6.69624 21.9464 6.50714 21.3311 6.45522 20.198C6.39942 18.972 6.38779 18.6039 6.38779 15.5C6.38779 12.3961 6.39942 12.028 6.45522 10.8019C6.50714 9.6689 6.69547 9.05355 6.85589 8.64357C7.06592 8.10107 7.31857 7.71357 7.72467 7.3067C8.09972 6.92078 8.55656 6.62391 9.06154 6.43792C9.47152 6.27827 10.0869 6.08917 11.2199 6.03725C12.446 5.98145 12.8141 5.96983 15.918 5.96983Z" fill="black"/>
<path fill-rule="evenodd" clip-rule="evenodd" d="M15.9176 19.379C15.4083 19.379 14.9039 19.2786 14.4333 19.0837C13.9626 18.8888 13.535 18.6031 13.1749 18.2429C12.8147 17.8827 12.529 17.4551 12.334 16.9845C12.1391 16.5139 12.0388 16.0095 12.0388 15.5001C12.0388 14.9907 12.1391 14.4863 12.334 14.0157C12.529 13.5451 12.8147 13.1175 13.1749 12.7573C13.535 12.3971 13.9626 12.1114 14.4333 11.9165C14.9039 11.7215 15.4083 11.6212 15.9176 11.6212C16.9464 11.6212 17.933 12.0299 18.6604 12.7573C19.3878 13.4847 19.7965 14.4714 19.7965 15.5001C19.7965 16.5288 19.3878 17.5154 18.6604 18.2429C17.933 18.9703 16.9464 19.379 15.9176 19.379ZM15.9176 9.52484C14.3329 9.52484 12.8131 10.1544 11.6925 11.275C10.5719 12.3955 9.94238 13.9154 9.94238 15.5001C9.94238 17.0848 10.5719 18.6047 11.6925 19.7252C12.8131 20.8458 14.3329 21.4753 15.9176 21.4753C17.5024 21.4753 19.0222 20.8458 20.1428 19.7252C21.2633 18.6047 21.8929 17.0848 21.8929 15.5001C21.8929 13.9154 21.2633 12.3955 20.1428 11.275C19.0222 10.1544 17.5024 9.52484 15.9176 9.52484ZM23.6312 9.41634C23.6312 9.79095 23.4824 10.1502 23.2175 10.4151C22.9526 10.68 22.5934 10.8288 22.2188 10.8288C21.8442 10.8288 21.4849 10.68 21.22 10.4151C20.9551 10.1502 20.8063 9.79095 20.8063 9.41634C20.8063 9.04174 20.9551 8.68248 21.22 8.4176C21.4849 8.15272 21.8442 8.00391 22.2188 8.00391C22.5934 8.00391 22.9526 8.15272 23.2175 8.4176C23.4824 8.68248 23.6312 9.04174 23.6312 9.41634Z" fill="black"/>
</svg>
