<svg width="31" height="30" viewBox="0 0 31 30" fill="none" xmlns="http://www.w3.org/2000/svg">
<path d="M26.668 5.40441V24.5956C26.668 25.0344 26.4937 25.4552 26.1834 25.7654C25.8731 26.0757 25.4523 26.25 25.0136 26.25H5.82238C5.3836 26.25 4.9628 26.0757 4.65253 25.7654C4.34227 25.4552 4.16797 25.0344 4.16797 24.5956V5.40441C4.16797 4.96563 4.34227 4.54483 4.65253 4.23457C4.9628 3.9243 5.3836 3.75 5.82238 3.75H25.0136C25.4523 3.75 25.8731 3.9243 26.1834 4.23457C26.4937 4.54483 26.668 4.96563 26.668 5.40441V5.40441ZM10.7856 12.3529H7.47679V22.9412H10.7856V12.3529ZM11.0834 8.71324C11.0852 8.46295 11.0376 8.21477 10.9434 7.98287C10.8492 7.75097 10.7103 7.53989 10.5346 7.36168C10.3588 7.18348 10.1497 7.04163 9.91911 6.94425C9.68854 6.84686 9.44105 6.79585 9.19076 6.79412H9.1312C8.62222 6.79412 8.13409 6.99631 7.77418 7.35621C7.41428 7.71612 7.21209 8.20425 7.21209 8.71324C7.21209 9.22222 7.41428 9.71035 7.77418 10.0703C8.13409 10.4302 8.62222 10.6324 9.1312 10.6324V10.6324C9.38151 10.6385 9.63057 10.5953 9.86416 10.5052C10.0978 10.415 10.3113 10.2797 10.4926 10.1071C10.6739 9.93437 10.8194 9.72765 10.9208 9.49871C11.0221 9.26977 11.0774 9.0231 11.0834 8.77279V8.71324ZM23.3591 16.5088C23.3591 13.3257 21.3341 12.0882 19.3224 12.0882C18.6637 12.0553 18.0079 12.1955 17.4203 12.4951C16.8328 12.7947 16.334 13.2431 15.9739 13.7956H15.8812V12.3529H12.7709V22.9412H16.0797V17.3096C16.0319 16.7328 16.2136 16.1604 16.5853 15.7168C16.957 15.2732 17.4888 14.9942 18.065 14.9404H18.1908C19.243 14.9404 20.0238 15.6022 20.0238 17.2699V22.9412H23.3327L23.3591 16.5088Z" fill="black"/>
</svg>
