<svg width="129" height="202" viewBox="0 0 129 202" fill="none" xmlns="http://www.w3.org/2000/svg">
<path d="M74.5047 2H54.305C48.7675 2 43.4568 4.19977 39.5412 8.11538C35.6255 12.031 33.4258 17.3417 33.4258 22.8792L34.3369 54.7257H96.2911L95.3801 22.8792C95.3801 17.3423 93.1808 12.0322 89.266 8.11672C85.3512 4.20122 80.0415 2.00101 74.5047 2Z" fill="#F0EFE7" stroke="#231F20" stroke-width="3.79622" stroke-miterlimit="10"/>
<path d="M94.9923 52.9206V24.2559C94.9923 18.848 92.844 13.6615 89.02 9.83752C85.196 6.01353 80.0095 3.86523 74.6016 3.86523H62.5859C68.8885 8.11391 75.4877 14.131 78.0235 21.7386C82.1906 34.2325 81.3118 38.3988 78.6202 52.9206H94.9923Z" fill="#3C74A2"/>
<path d="M71.2884 145.633H57.5195V192.174H71.2884V145.633Z" fill="#3C74A2" stroke="#231F20" stroke-width="3.79622" stroke-miterlimit="10"/>
<path d="M29.9043 56.8062L31.7834 138.045C31.9998 147.46 41.7105 155.003 53.6155 155.003H74.7224C86.5856 155.003 96.2812 147.509 96.5507 138.121L98.9006 56.791L29.9043 56.8062Z" fill="#F0EFE7" stroke="#231F20" stroke-width="3.79622" stroke-miterlimit="10"/>
<path d="M77.5857 58.5273C74.2276 78.2322 59.9801 145.178 46.708 152.383C49.058 153.041 51.4875 153.373 53.928 153.368H74.6739C86.3341 153.368 95.8638 146.002 96.1287 136.775L96.8722 58.5273H77.5857Z" fill="#3C74A2"/>
<path d="M98.9012 131.35H29.0811L27.3311 115.717H101.107L98.9012 131.35Z" fill="#F9FAFB" stroke="#231F20" stroke-width="3.79622" stroke-miterlimit="10"/>
<path d="M91.9161 73.5895C91.9161 73.5706 91.9161 73.5554 91.9161 73.5364C91.9166 73.1614 91.8431 72.7899 91.6998 72.4433C91.5565 72.0968 91.3463 71.7819 91.0811 71.5167C90.8159 71.2515 90.501 71.0412 90.1544 70.8979C89.8078 70.7546 89.4364 70.6811 89.0614 70.6816H43.1613C42.7861 70.6811 42.4144 70.7546 42.0677 70.8979C41.7209 71.0411 41.4057 71.2513 41.1402 71.5164C40.8747 71.7816 40.6641 72.0964 40.5204 72.443C40.3767 72.7896 40.3027 73.1612 40.3027 73.5364C40.3027 73.5554 40.3027 73.5706 40.3027 73.5895H91.9161Z" fill="#231F20"/>
<path d="M88.4872 79.1241C88.4872 79.1241 88.4872 79.0937 88.4872 79.0747C88.4872 78.4183 88.2265 77.7887 87.7623 77.3246C87.2981 76.8604 86.6685 76.5996 86.0121 76.5996H46.2163C45.5599 76.5996 44.9303 76.8604 44.4662 77.3246C44.002 77.7887 43.7412 78.4183 43.7412 79.0747C43.7412 79.0937 43.7412 79.1089 43.7412 79.1241H88.4872Z" fill="#231F20"/>
<path d="M88.4872 84.8526C88.4872 84.8526 88.4872 84.8222 88.4872 84.8033C88.4872 84.1468 88.2265 83.5173 87.7623 83.0531C87.2981 82.5889 86.6685 82.3281 86.0121 82.3281H46.2163C45.5599 82.3281 44.9303 82.5889 44.4662 83.0531C44.002 83.5173 43.7412 84.1468 43.7412 84.8033C43.7412 84.8222 43.7412 84.8336 43.7412 84.8526H88.4872Z" fill="#231F20"/>
<g style="mix-blend-mode:screen" opacity="0.26">
<path d="M56.6512 121.869C56.6512 124.029 51.4503 125.779 45.0385 125.779C38.6267 125.779 33.4297 124.029 33.4297 121.869C33.4297 119.709 38.6267 117.955 45.0385 117.955C51.4503 117.955 56.6512 119.709 56.6512 121.869Z" fill="#F9FAFB"/>
<path d="M56.6512 121.869C56.6512 124.029 51.4503 125.779 45.0385 125.779C38.6267 125.779 33.4297 124.029 33.4297 121.869C33.4297 119.709 38.6267 117.955 45.0385 117.955C51.4503 117.955 56.6512 119.709 56.6512 121.869Z" stroke="#231F20" stroke-width="0.379622" stroke-miterlimit="10"/>
</g>
<path d="M77.8095 193.086C77.8095 195.872 71.7355 198.135 64.219 198.135C56.7025 198.135 50.6172 195.857 50.6172 193.086C50.6172 190.315 56.6911 188.037 64.2076 188.037C71.7242 188.037 77.8095 190.3 77.8095 193.086Z" fill="#3C74A2" stroke="#231F20" stroke-width="3.79622" stroke-miterlimit="10"/>
<path d="M126.808 199.115H2V196.697L6.5251 192.172H122.283L126.808 196.697V199.115Z" fill="#3C74A2" stroke="#231F20" stroke-width="3.79622" stroke-miterlimit="10"/>
</svg>
