<svg width="160" height="227" viewBox="0 0 160 227" fill="none" xmlns="http://www.w3.org/2000/svg">
<path d="M107.98 91.8569V24.0132C107.98 17.6445 105.45 11.5366 100.947 7.0333C96.4433 2.52995 90.3354 0 83.9667 0H69.8164C77.2387 5.00347 85.0102 12.0895 87.9966 21.0486C92.904 35.7622 86.5427 74.7508 83.3729 91.8526L107.98 91.8569Z" fill="#E8C97C"/>
<path d="M83.9714 0.00390625H60.7397C54.371 0.00390625 48.2632 2.53386 43.7599 7.0372C39.2565 11.5405 36.7266 17.6484 36.7266 24.0171L37.7744 60.6437H109.028L107.98 24.0171C107.98 17.6491 105.451 11.542 100.948 7.03875C96.4461 2.53553 90.3393 0.00506406 83.9714 0.00390625Z" fill="#E8C97C"/>
<path d="M80.2712 165.197H64.4355V218.725H80.2712V165.197Z" fill="#E8C97C"/>
<path d="M87.5702 63.0371C83.6408 86.0941 67.028 166.407 51.498 174.838C54.2478 175.609 57.0906 175.997 59.9463 175.991H84.2215C97.8653 175.991 109.016 167.372 109.326 156.575L112.029 63.0371H87.5702Z" fill="#E8C97C"/>
<path d="M32.6768 63.037L34.8379 156.47C35.0868 167.298 46.2551 175.973 59.947 175.973H84.2221C97.866 175.973 109.017 167.355 109.327 156.557L112.029 63.0195L32.6768 63.037Z" fill="#E8C97C"/>
<path d="M112.032 148.768H31.7315L29.7188 130.789H114.568L112.032 148.768Z" fill="#E8C97C"/>
<path d="M103.998 82.3385C103.998 82.3167 103.998 82.2992 103.998 82.2774C103.999 81.8461 103.914 81.4189 103.75 81.0203C103.585 80.6217 103.343 80.2595 103.038 79.9545C102.733 79.6495 102.371 79.4077 101.972 79.2429C101.574 79.0781 101.146 78.9936 100.715 78.9941H47.9253C47.4938 78.9936 47.0664 79.0781 46.6675 79.2428C46.2687 79.4076 45.9062 79.6493 45.6009 79.9542C45.2955 80.2592 45.0533 80.6213 44.888 81.0199C44.7228 81.4186 44.6377 81.8459 44.6377 82.2774C44.6377 82.2992 44.6377 82.3167 44.6377 82.3385H103.998Z" fill="#E8C97C"/>
<path d="M100.05 88.7042C100.05 88.7042 100.05 88.6693 100.05 88.6474C100.05 87.8925 99.7504 87.1684 99.2165 86.6345C98.6827 86.1007 97.9586 85.8008 97.2037 85.8008H51.4345C50.6796 85.8008 49.9555 86.1007 49.4217 86.6345C48.8878 87.1684 48.5879 87.8925 48.5879 88.6474C48.5879 88.6693 48.5879 88.6867 48.5879 88.7042H100.05Z" fill="#E8C97C"/>
<path d="M100.05 95.2921C100.05 95.2921 100.05 95.2572 100.05 95.2353C100.05 94.4803 99.7504 93.7563 99.2165 93.2224C98.6827 92.6886 97.9586 92.3887 97.2037 92.3887H51.4345C50.6796 92.3887 49.9555 92.6886 49.4217 93.2224C48.8878 93.7563 48.5879 94.4803 48.5879 95.2353C48.5879 95.2572 48.5879 95.2703 48.5879 95.2921H100.05Z" fill="#E8C97C"/>
<g style="mix-blend-mode:screen" opacity="0.26">
<path d="M63.4394 137.867C63.4394 140.351 57.458 142.364 50.0837 142.364C42.7095 142.364 36.7324 140.351 36.7324 137.867C36.7324 135.382 42.7095 133.365 50.0837 133.365C57.458 133.365 63.4394 135.382 63.4394 137.867Z" fill="#E8C97C"/>
</g>
<path d="M87.7729 219.772C87.7729 222.976 80.7873 225.578 72.1425 225.578C63.4978 225.578 56.499 222.959 56.499 219.772C56.499 216.584 63.4847 213.965 72.1294 213.965C80.7742 213.965 87.7729 216.567 87.7729 219.772Z" fill="#E8C97C"/>
<path d="M144.126 226.706H0.583984V223.925L5.7883 218.721H138.922L144.126 223.925V226.706Z" fill="#E8C97C"/>
<path d="M101.594 13.3691H79.9762C74.0498 13.3691 68.3662 15.7234 64.1756 19.9139C59.9851 24.1045 57.6309 29.7881 57.6309 35.7145L58.6059 69.7971H124.911L123.935 35.7145C123.935 29.7888 121.582 24.1058 117.392 19.9154C113.202 15.7249 107.52 13.3702 101.594 13.3691Z" fill="#F0EFE7" stroke="#231F20" stroke-width="4.06278" stroke-miterlimit="10"/>
<path d="M123.521 67.8652V37.1877C123.521 31.4 121.222 25.8494 117.129 21.7569C113.037 17.6644 107.486 15.3652 101.698 15.3652H88.8389C95.584 19.9122 102.647 26.3519 105.36 34.4936C109.82 47.8648 108.88 52.3237 105.999 67.8652H123.521Z" fill="#3C74A2"/>
<path d="M98.1537 167.088H83.418V216.898H98.1537V167.088Z" fill="#3C74A2" stroke="#231F20" stroke-width="4.06278" stroke-miterlimit="10"/>
<path d="M53.8652 72.0241L55.8763 158.968C56.1079 169.043 66.5005 177.116 79.2414 177.116H101.83C114.527 177.116 124.903 169.096 125.191 159.049L127.706 72.0078L53.8652 72.0241Z" fill="#CECCC4" stroke="#231F20" stroke-width="4.06278" stroke-miterlimit="10"/>
<path d="M104.892 73.8652C101.298 94.9537 86.0498 166.6 71.8457 174.311C74.3607 175.016 76.9608 175.371 79.5727 175.365H101.775C114.254 175.365 124.453 167.482 124.737 157.607L125.532 73.8652H104.892Z" fill="#3C74A2"/>
<path d="M127.706 151.801H52.9833L51.1104 135.07H130.066L127.706 151.801Z" fill="#F9FAFB" stroke="#231F20" stroke-width="4.06278" stroke-miterlimit="10"/>
<path d="M120.231 89.9851C120.231 89.9648 120.231 89.9486 120.231 89.9283C120.231 89.5269 120.153 89.1294 119.999 88.7584C119.846 88.3875 119.621 88.0505 119.337 87.7667C119.053 87.4829 118.716 87.2579 118.345 87.1045C117.974 86.9512 117.577 86.8725 117.176 86.873H68.0524C67.6509 86.8725 67.2532 86.9511 66.882 87.1044C66.5109 87.2577 66.1736 87.4827 65.8894 87.7665C65.6053 88.0502 65.3799 88.3872 65.2261 88.7581C65.0723 89.1291 64.9932 89.5267 64.9932 89.9283C64.9932 89.9486 64.9932 89.9648 64.9932 89.9851H120.231Z" fill="#231F20"/>
<path d="M116.558 95.9088C116.558 95.9088 116.558 95.8763 116.558 95.856C116.558 95.1534 116.279 94.4797 115.782 93.9829C115.285 93.4861 114.612 93.207 113.909 93.207H71.3189C70.6163 93.207 69.9425 93.4861 69.4458 93.9829C68.949 94.4797 68.6699 95.1534 68.6699 95.856C68.6699 95.8763 68.6699 95.8925 68.6699 95.9088H116.558Z" fill="#231F20"/>
<path d="M116.558 102.04C116.558 102.04 116.558 102.007 116.558 101.987C116.558 101.284 116.279 100.611 115.782 100.114C115.285 99.617 114.612 99.3379 113.909 99.3379H71.3189C70.6163 99.3379 69.9425 99.617 69.4458 100.114C68.949 100.611 68.6699 101.284 68.6699 101.987C68.6699 102.007 68.6699 102.019 68.6699 102.04H116.558Z" fill="#231F20"/>
<g style="mix-blend-mode:screen" opacity="0.26">
<path d="M82.4888 141.656C82.4888 143.967 76.9228 145.84 70.0607 145.84C63.1987 145.84 57.6367 143.967 57.6367 141.656C57.6367 139.344 63.1987 137.467 70.0607 137.467C76.9228 137.467 82.4888 139.344 82.4888 141.656Z" fill="#F9FAFB"/>
<path d="M82.4888 141.656C82.4888 143.967 76.9228 145.84 70.0607 145.84C63.1987 145.84 57.6367 143.967 57.6367 141.656C57.6367 139.344 63.1987 137.467 70.0607 137.467C76.9228 137.467 82.4888 139.344 82.4888 141.656Z" stroke="#231F20" stroke-width="0.406278" stroke-miterlimit="10"/>
</g>
<path d="M105.134 217.874C105.134 220.856 98.6335 223.278 90.5892 223.278C82.5449 223.278 76.0322 220.84 76.0322 217.874C76.0322 214.908 82.5327 212.471 90.577 212.471C98.6213 212.471 105.134 214.892 105.134 217.874Z" fill="#3C74A2" stroke="#231F20" stroke-width="4.06278" stroke-miterlimit="10"/>
<path d="M157.572 224.325H24V221.737L28.8428 216.895H152.729L157.572 221.737V224.325Z" fill="#3C74A2" stroke="#231F20" stroke-width="4.06278" stroke-miterlimit="10"/>
</svg>
