<svg width="179" height="201" viewBox="0 0 179 201" fill="none" xmlns="http://www.w3.org/2000/svg">
<path d="M91.4071 35.5504L91.5059 43.4121L127.937 42.9543L127.838 35.0926L91.4071 35.5504Z" fill="#4D437B" stroke="#231F20" stroke-width="3.29242" stroke-miterlimit="10"/>
<path d="M116.72 34.3941L116.835 43.6129C117.529 44.4429 118.4 45.1075 119.383 45.558C120.367 46.0086 121.439 46.2338 122.521 46.2171L129.185 46.1151L128.977 31.5527L122.31 31.6515C121.233 31.6656 120.173 31.9189 119.206 32.3933C118.239 32.8676 117.39 33.5511 116.72 34.3941Z" fill="white" stroke="#231F20" stroke-width="3.29242" stroke-miterlimit="10"/>
<path d="M128.954 30.172L129.17 47.3867L131.257 47.3605L131.041 30.1458L128.954 30.172Z" fill="#4D437B" stroke="#231F20" stroke-width="3.29242" stroke-miterlimit="10"/>
<path d="M176.77 64.9473L176.83 69.0496L145.782 76.5728L145.624 65.3819L176.77 64.9473Z" fill="#4D437B" stroke="#231F20" stroke-width="3.29242" stroke-miterlimit="10"/>
<path d="M176.709 14.6651L176.818 10.5628L145.869 2.64453L145.569 13.8322L176.709 14.6651Z" fill="#4D437B" stroke="#231F20" stroke-width="3.29242" stroke-miterlimit="10"/>
<path d="M141.48 27.3697L141.753 51.2233C141.767 52.6249 141.225 53.975 140.246 54.9778C139.267 55.9806 137.93 56.5543 136.528 56.5734C135.128 56.5858 133.78 56.0434 132.779 55.065C131.778 54.0865 131.205 52.7515 131.185 51.3517L130.911 27.4981C130.899 26.0982 131.441 24.7503 132.42 23.749C133.398 22.7478 134.733 22.1745 136.133 22.1545C137.532 22.1413 138.88 22.6824 139.882 23.6595C140.884 24.6366 141.458 25.9705 141.48 27.3697Z" fill="white" stroke="#231F20" stroke-width="3.29242" stroke-miterlimit="10"/>
<path d="M134.411 47.6291C133.315 48.068 132.433 48.9176 131.954 49.9969C131.475 51.0762 131.436 52.2999 131.846 53.4073L138.994 72.7305C139.368 73.7739 139.968 74.7219 140.751 75.5068C141.534 76.2918 142.48 76.8944 143.522 77.2717C144.565 77.649 145.677 77.7918 146.781 77.6897C147.885 77.5877 148.953 77.2434 149.908 76.6814C150.822 76.1438 151.612 75.4194 152.227 74.5555C152.841 73.6916 153.266 72.7078 153.475 71.6682C153.683 70.6287 153.669 69.557 153.435 68.523C153.2 67.4891 152.75 66.5163 152.114 65.6683L139.722 49.1206C139.124 48.3221 138.28 47.7431 137.319 47.4734C136.359 47.2038 135.337 47.2585 134.411 47.6291Z" fill="white" stroke="#231F20" stroke-width="3.29242" stroke-miterlimit="10"/>
<path d="M143.515 71.3432C143.829 71.872 144.303 72.2872 144.868 72.5287C145.434 72.7702 146.062 72.8255 146.661 72.6865C147.26 72.5475 147.799 72.2214 148.201 71.7556C148.602 71.2897 148.845 70.7081 148.894 70.0951C148.943 69.482 148.796 68.8692 148.473 68.3455C148.151 67.8217 147.67 67.4141 147.101 67.1817C146.532 66.9493 145.903 66.904 145.306 67.0526C144.709 67.2011 144.175 67.5357 143.781 68.008C143.398 68.4683 143.166 69.0361 143.119 69.6332C143.071 70.2304 143.209 70.8278 143.515 71.3432Z" fill="#4D437B"/>
<path d="M134.437 53.3699C134.678 53.7761 135.043 54.0951 135.477 54.2805C135.912 54.466 136.394 54.5083 136.854 54.4015C137.315 54.2946 137.729 54.044 138.037 53.6861C138.346 53.3281 138.532 52.8813 138.57 52.4103C138.607 51.9393 138.494 51.4686 138.246 51.0663C137.998 50.664 137.629 50.351 137.191 50.1726C136.754 49.9942 136.271 49.9596 135.812 50.0739C135.354 50.1882 134.944 50.4454 134.641 50.8084C134.347 51.1621 134.17 51.5981 134.133 52.0567C134.096 52.5153 134.203 52.974 134.437 53.3699Z" fill="#4D437B"/>
<path d="M133.36 31.2622C132.297 30.7516 131.476 29.8473 131.069 28.7409C130.662 27.6346 130.702 26.4132 131.18 25.3359L139.586 6.52963C140.028 5.51317 140.688 4.60675 141.521 3.87501C142.353 3.14328 143.337 2.60426 144.402 2.29641C145.467 1.98856 146.586 1.91945 147.681 2.09403C148.775 2.2686 149.818 2.68255 150.734 3.30635C151.609 3.90309 152.348 4.67757 152.903 5.57926C153.459 6.48096 153.817 7.4896 153.957 8.53938C154.096 9.58917 154.012 10.6565 153.711 11.6717C153.41 12.687 152.898 13.6273 152.209 14.4314L138.759 30.1264C138.11 30.8839 137.229 31.4062 136.253 31.6121C135.277 31.8181 134.26 31.6963 133.36 31.2655V31.2622Z" fill="white" stroke="#231F20" stroke-width="3.29242" stroke-miterlimit="10"/>
<path d="M135.547 29.069C136.019 29.0864 136.485 28.9531 136.876 28.6883C137.268 28.4235 137.565 28.0409 137.724 27.5961C137.884 27.1512 137.897 26.6672 137.763 26.2139C137.629 25.7607 137.355 25.3619 136.979 25.0753C136.603 24.7886 136.146 24.629 135.674 24.6196C135.201 24.6101 134.738 24.7513 134.351 25.0227C133.964 25.2941 133.674 25.6816 133.522 26.1291C133.37 26.5765 133.364 27.0608 133.506 27.5117C133.643 27.9503 133.913 28.3355 134.279 28.6143C134.645 28.8932 135.087 29.052 135.547 29.069Z" fill="#4D437B"/>
<path d="M146.301 12.7657C146.915 12.7859 147.52 12.6103 148.028 12.2643C148.536 11.9182 148.92 11.4197 149.126 10.8406C149.332 10.2616 149.349 9.63213 149.173 9.04315C148.998 8.45417 148.64 7.93621 148.151 7.56412C147.662 7.19203 147.067 6.98509 146.452 6.9732C145.838 6.96131 145.236 7.14509 144.733 7.49799C144.229 7.85088 143.852 8.35461 143.654 8.93636C143.456 9.51812 143.448 10.1478 143.631 10.7343C143.811 11.3076 144.165 11.8108 144.643 12.1747C145.121 12.5385 145.701 12.745 146.301 12.7657Z" fill="#4D437B"/>
<path d="M5.46152 82.0648C3.63935 77.1171 2.51355 71.9402 2.11643 66.6827C1.3032 55.258 4.69109 46.3191 11.9344 40.8701C17.2253 36.8896 23.043 35.7372 28.7685 37.5382C35.3698 39.6124 40.6212 45.3248 42.1127 48.5316L38.9882 50.6651C38.0005 48.525 33.5952 43.5567 27.873 41.7591C23.0496 40.2413 18.325 41.1895 13.821 44.5774C7.72341 49.1703 4.98412 56.4795 5.68211 66.3073C6.04931 71.0425 7.05949 75.7057 8.6848 80.1684L5.46152 82.0648Z" fill="#4A4079"/>
<path d="M44.837 44.9216L34.8145 50.6816L36.3965 53.4343L46.419 47.6743L44.837 44.9216Z" fill="#4A4079"/>
<path d="M80.0892 31.0156H96.3537V48.6926H80.0892C77.7446 48.6926 75.4961 47.7612 73.8382 46.1034C72.1804 44.4455 71.249 42.197 71.249 39.8525C71.2499 37.5085 72.1817 35.2608 73.8394 33.6037C75.4972 31.9465 77.7452 31.0156 80.0892 31.0156Z" fill="white" stroke="#231F20" stroke-width="3.29242" stroke-miterlimit="10"/>
<path d="M47.6027 76.9369L33.5918 55.2461L29.0645 58.1705L43.0754 79.8613L47.6027 76.9369Z" fill="#4A4079" stroke="#231F20" stroke-width="3.29242" stroke-miterlimit="10"/>
<path d="M3.11938 90.2634C2.11034 88.6933 1.76618 86.7867 2.16255 84.9628C2.55893 83.139 3.6634 81.5473 5.23311 80.5376L41.4497 57.2207L49.065 69.0734L12.8485 92.3903C12.0701 92.8898 11.2009 93.2311 10.2906 93.3945C9.3803 93.558 8.44671 93.5404 7.54318 93.3429C6.63965 93.1454 5.7839 92.7718 5.02484 92.2434C4.26578 91.715 3.61829 91.0421 3.11938 90.2634Z" fill="#4A4079" stroke="#231F20" stroke-width="3.29242" stroke-miterlimit="10"/>
<path d="M45.9355 80.2804L85.1153 51.2644C87.5393 49.4666 89.1863 46.812 89.7204 43.8417C90.2545 40.8714 89.6355 37.8093 87.9895 35.2797C86.3464 32.7475 83.799 30.9377 80.8672 30.2194C77.9353 29.5011 74.8398 29.9285 72.2123 31.4144L29.8652 55.4029L45.9355 80.2804Z" fill="white" stroke="#231F20" stroke-width="3.29242" stroke-miterlimit="10"/>
<path d="M82.16 48.1462C80.8977 48.9643 79.4212 49.3899 77.9171 49.3692C76.413 49.3485 74.9488 48.8824 73.7095 48.0298C72.4702 47.1773 71.5114 45.9765 70.9542 44.5793C70.3971 43.182 70.2666 41.651 70.5793 40.1796C70.8919 38.7082 71.6337 37.3625 72.7109 36.3125C73.7881 35.2626 75.1523 34.5554 76.6312 34.2805C78.1101 34.0056 79.6373 34.1752 81.0198 34.7679C82.4024 35.3606 83.5782 36.3498 84.3988 37.6105C84.9437 38.4492 85.318 39.3871 85.5004 40.3706C85.6828 41.354 85.6697 42.3637 85.4618 43.3421C85.2539 44.3205 84.8553 45.2483 84.2887 46.0726C83.7222 46.8969 82.9989 47.6015 82.16 48.1462V48.1462ZM75.6179 38.0714C74.8874 38.5461 74.3139 39.2268 73.9702 40.0274C73.6265 40.828 73.5279 41.7126 73.6869 42.5692C73.8458 43.4258 74.2553 44.2161 74.8634 44.8401C75.4715 45.464 76.251 45.8936 77.1032 46.0746C77.9555 46.2555 78.8423 46.1797 79.6515 45.8566C80.4606 45.5336 81.1558 44.9779 81.6492 44.2597C82.1425 43.5416 82.4118 42.6933 82.423 41.8221C82.4343 40.9509 82.1869 40.0959 81.7122 39.3653C81.0745 38.387 80.0749 37.7014 78.9325 37.4588C77.7901 37.2163 76.5982 37.4366 75.6179 38.0714Z" stroke="#231F20" stroke-width="3.29242" stroke-miterlimit="10"/>
<path d="M111.438 128.679C107.436 133.228 101.791 136.001 95.7442 136.389C89.6976 136.776 83.7448 134.745 79.1954 130.743L36.1899 92.9133C31.6412 88.9103 28.8684 83.2647 28.4813 77.2178C28.0942 71.1709 30.1244 65.2178 34.1255 60.6674C38.1285 56.1187 43.7742 53.346 49.8211 52.9588C55.868 52.5717 61.8211 54.6019 66.3715 58.6031L109.39 96.4296C113.937 100.435 116.708 106.083 117.092 112.13C117.476 118.178 115.442 124.13 111.438 128.679Z" fill="white" stroke="#231F20" stroke-width="3.29242" stroke-miterlimit="10"/>
<path d="M41.2384 66.9258C39.6674 68.7119 38.6614 70.9237 38.3474 73.2816C38.0335 75.6394 38.4257 78.0374 39.4746 80.1724C40.5235 82.3073 42.1819 84.0833 44.24 85.2757C46.2982 86.4682 48.6638 87.0236 51.0376 86.8716C53.4114 86.7197 55.6869 85.8673 57.5762 84.4222C59.4656 82.9771 60.884 81.0042 61.6522 78.7529C62.4203 76.5017 62.5037 74.0733 61.8917 71.7747C61.2797 69.4761 59.9999 67.4106 58.2141 65.8393C57.0282 64.7959 55.6483 63.9963 54.1533 63.4862C52.6584 62.9761 51.0776 62.7655 49.5012 62.8664C47.9248 62.9672 46.3837 63.3777 44.966 64.0742C43.5483 64.7707 42.2816 65.7397 41.2384 66.9258V66.9258ZM55.6756 79.6214C54.7369 80.6907 53.5021 81.4577 52.1275 81.8252C50.7528 82.1928 49.3001 82.1444 47.9529 81.6863C46.6057 81.2281 45.4247 80.3807 44.5592 79.2513C43.6937 78.1219 43.1825 76.7611 43.0904 75.3412C42.9983 73.9212 43.3293 72.5058 44.0417 71.274C44.754 70.0422 45.8157 69.0494 47.0924 68.421C48.369 67.7926 49.8034 67.557 51.214 67.7438C52.6246 67.9307 53.9481 68.5317 55.0171 69.4708C56.4502 70.7298 57.3246 72.5063 57.4481 74.4098C57.5716 76.3132 56.934 78.1878 55.6756 79.6214V79.6214Z" stroke="#231F20" stroke-width="3.29242" stroke-miterlimit="10"/>
<path d="M133.879 143.271L130.392 141.042C136.121 132.08 136.121 123.951 130.392 117.531C120.864 106.86 101.518 115.295 101.323 115.381L99.6377 111.601C103.576 109.955 107.716 108.841 111.948 108.285C121.2 107.113 128.644 109.355 133.48 114.775C140.474 122.614 140.618 132.732 133.879 143.271Z" fill="#4A4079"/>
<path d="M96.9043 94.0547C102.405 94.0547 107.681 96.24 111.571 100.13C115.461 104.02 117.647 109.296 117.647 114.797V132.629H76.1357V114.817C76.1357 109.315 78.3211 104.04 82.211 100.15C86.1009 96.2598 91.3768 94.0744 96.878 94.0744L96.9043 94.0547Z" fill="#4A4079" stroke="#231F20" stroke-width="3.29242" stroke-miterlimit="10"/>
<path d="M90.9533 107.376C89.542 108.6 88.5251 110.214 88.0313 112.015C87.5375 113.816 87.589 115.724 88.1792 117.496C88.7695 119.268 89.8719 120.825 91.3472 121.97C92.8225 123.116 94.6043 123.798 96.4673 123.93C98.3304 124.063 100.191 123.64 101.814 122.715C103.436 121.791 104.748 120.405 105.584 118.735C106.419 117.064 106.74 115.184 106.506 113.331C106.273 111.478 105.495 109.735 104.271 108.324C102.63 106.434 100.306 105.272 97.8085 105.094C95.3113 104.916 92.8457 105.737 90.9533 107.376V107.376ZM100.831 118.778C99.9869 119.51 98.9452 119.975 97.8371 120.115C96.7291 120.254 95.6045 120.062 94.6056 119.563C93.6066 119.063 92.7783 118.279 92.2252 117.309C91.6721 116.338 91.4192 115.226 91.4984 114.112C91.5776 112.998 91.9854 111.932 92.6702 111.05C93.355 110.168 94.286 109.509 95.3456 109.156C96.4051 108.803 97.5456 108.772 98.6227 109.067C99.6998 109.362 100.665 109.97 101.397 110.814C102.378 111.945 102.869 113.419 102.763 114.913C102.657 116.407 101.962 117.797 100.831 118.778V118.778Z" stroke="#231F20" stroke-width="4.60938" stroke-miterlimit="10"/>
<path d="M124.505 130.531H71.4277V146.127H124.505V130.531Z" fill="#4A4079" stroke="#231F20" stroke-width="3.29242" stroke-miterlimit="10"/>
<path d="M142.598 152.285H48.2671C48.217 152.722 48.1917 153.162 48.1914 153.602V198.883H142.684V153.605C142.68 153.164 142.652 152.723 142.598 152.285Z" fill="white" stroke="#231F20" stroke-width="3.29242" stroke-miterlimit="10"/>
<path d="M122.23 138.035H69.0509C57.6723 141.127 49.3458 146.451 48.4766 154.003H142.808C141.938 146.457 133.612 141.127 122.23 138.035Z" fill="white" stroke="#231F20" stroke-width="3.29242" stroke-miterlimit="10"/>
<path d="M148.043 185.107H46.2646V198.886H148.043V185.107Z" fill="#4A4079" stroke="#231F20" stroke-width="3.29242" stroke-miterlimit="10"/>
<path d="M86.6492 165.378C86.3154 165.378 85.9849 165.313 85.6765 165.185C85.3681 165.057 85.0879 164.87 84.8519 164.634C84.6159 164.398 84.4286 164.118 84.3009 163.809C84.1732 163.501 84.1074 163.17 84.1074 162.837C84.1074 162.503 84.1732 162.172 84.3009 161.864C84.4286 161.556 84.6159 161.275 84.8519 161.039C85.0879 160.803 85.3681 160.616 85.6765 160.488C85.9849 160.361 86.3154 160.295 86.6492 160.295C86.983 160.295 87.3135 160.361 87.6218 160.488C87.9302 160.616 88.2104 160.803 88.4465 161.039C88.6825 161.275 88.8697 161.556 88.9974 161.864C89.1252 162.172 89.1909 162.503 89.1909 162.837C89.1909 163.511 88.9231 164.157 88.4465 164.634C87.9698 165.111 87.3233 165.378 86.6492 165.378Z" fill="#4A4079"/>
<path d="M95.2664 165.379C94.9326 165.379 94.6021 165.313 94.2937 165.185C93.9853 165.057 93.7051 164.87 93.4691 164.634C93.2331 164.398 93.0458 164.118 92.9181 163.809C92.7904 163.501 92.7246 163.171 92.7246 162.837C92.7233 162.502 92.7881 162.171 92.9153 161.861C93.0424 161.552 93.2294 161.27 93.4656 161.033C93.7017 160.796 93.9824 160.608 94.2914 160.48C94.6004 160.351 94.9318 160.285 95.2664 160.285C95.9399 160.286 96.5856 160.554 97.0615 161.031C97.5375 161.507 97.8048 162.153 97.8048 162.827C97.8061 163.161 97.7414 163.493 97.6145 163.802C97.4876 164.111 97.3008 164.392 97.065 164.629C96.8292 164.866 96.549 165.055 96.2403 165.183C95.9317 165.312 95.6007 165.378 95.2664 165.379Z" fill="#4A4079"/>
<path d="M103.877 165.378C103.203 165.378 102.556 165.111 102.079 164.634C101.603 164.157 101.335 163.511 101.335 162.837C101.335 162.503 101.401 162.172 101.528 161.864C101.656 161.556 101.843 161.275 102.079 161.039C102.315 160.803 102.596 160.616 102.904 160.488C103.212 160.361 103.543 160.295 103.877 160.295C104.21 160.295 104.541 160.361 104.849 160.488C105.158 160.616 105.438 160.803 105.674 161.039C105.91 161.275 106.097 161.556 106.225 161.864C106.353 162.172 106.418 162.503 106.418 162.837C106.418 163.17 106.353 163.501 106.225 163.809C106.097 164.118 105.91 164.398 105.674 164.634C105.438 164.87 105.158 165.057 104.849 165.185C104.541 165.313 104.21 165.378 103.877 165.378Z" fill="#4A4079"/>
<path d="M112.491 165.378C111.817 165.378 111.17 165.111 110.694 164.634C110.217 164.157 109.949 163.511 109.949 162.837C109.949 162.503 110.015 162.172 110.143 161.864C110.27 161.556 110.458 161.275 110.694 161.039C110.93 160.803 111.21 160.616 111.518 160.488C111.827 160.361 112.157 160.295 112.491 160.295C112.825 160.295 113.155 160.361 113.464 160.488C113.772 160.616 114.052 160.803 114.288 161.039C114.524 161.275 114.711 161.556 114.839 161.864C114.967 162.172 115.033 162.503 115.033 162.837C115.033 163.17 114.967 163.501 114.839 163.809C114.711 164.118 114.524 164.398 114.288 164.634C114.052 164.87 113.772 165.057 113.464 165.185C113.155 165.313 112.825 165.378 112.491 165.378Z" fill="#4A4079"/>
<path d="M63.6634 146.214C65.2141 143.985 67.5352 142.414 69.8399 141.031H68.7205C66.4158 142.414 64.0947 143.994 62.5439 146.214H63.6634Z" fill="#4A4079" stroke="#231F20" stroke-width="2.96317" stroke-miterlimit="10"/>
<path d="M66.3229 146.214C67.8671 143.985 70.1915 142.414 72.4896 141.031H71.3735C69.0688 142.414 66.7476 143.994 65.2002 146.214H66.3229Z" fill="#4A4079" stroke="#231F20" stroke-width="2.96317" stroke-miterlimit="10"/>
<path d="M68.9879 146.214C70.5387 143.985 72.8434 142.414 75.1481 141.031H74.0319C71.7272 142.414 69.4225 143.994 67.8652 146.214H68.9879Z" fill="#4A4079" stroke="#231F20" stroke-width="2.96317" stroke-miterlimit="10"/>
<path d="M71.652 146.214C73.1896 143.985 75.5107 142.414 77.8055 141.031H76.6894C74.3847 142.414 72.08 143.994 70.5293 146.214H71.652Z" fill="#4A4079" stroke="#231F20" stroke-width="2.96317" stroke-miterlimit="10"/>
<path d="M74.3138 146.214C75.8513 143.985 78.1725 142.414 80.464 141.031H79.3446C77.0399 142.414 74.7352 143.994 73.1943 146.214H74.3138Z" fill="#4A4079" stroke="#231F20" stroke-width="2.96317" stroke-miterlimit="10"/>
<path d="M76.9739 146.214C78.5049 143.985 80.8293 142.414 83.1176 141.031H81.9981C79.7099 142.414 77.3888 143.994 75.8545 146.214H76.9739Z" fill="#4A4079" stroke="#231F20" stroke-width="2.96317" stroke-miterlimit="10"/>
<path d="M79.639 146.214C81.1666 143.985 83.4878 142.414 85.776 141.031H84.6566C82.3684 142.414 80.0472 143.994 78.5195 146.214H79.639Z" fill="#4A4079" stroke="#231F20" stroke-width="2.96317" stroke-miterlimit="10"/>
</svg>
