<svg width="228" height="233" viewBox="0 0 228 233" fill="none" xmlns="http://www.w3.org/2000/svg">
<path d="M103.097 38.6849L103.211 47.75L145.219 47.2221L145.105 38.157L103.097 38.6849Z" fill="#6FAFDE"/>
<path d="M132.281 37.3525L132.414 47.9824C133.214 48.9396 134.218 49.7059 135.353 50.2254C136.487 50.7449 137.723 51.0046 138.971 50.9854L146.654 50.8677L146.415 34.0762L138.728 34.1901C137.486 34.2063 136.263 34.4984 135.148 35.0454C134.033 35.5923 133.054 36.3804 132.281 37.3525Z" fill="#6FAFDE"/>
<path d="M146.388 32.486L146.638 52.3359L149.044 52.3057L148.795 32.4558L146.388 32.486Z" fill="#6FAFDE"/>
<path d="M201.525 72.582L201.594 77.3124L165.794 85.9872L165.611 73.0832L201.525 72.582Z" fill="#6FAFDE"/>
<path d="M201.453 14.6049L201.579 9.87452L165.892 0.744141L165.547 13.6444L201.453 14.6049Z" fill="#6FAFDE"/>
<path d="M160.835 29.254L161.15 56.7591C161.166 58.3753 160.542 59.932 159.412 61.0883C158.283 62.2446 156.741 62.9062 155.125 62.9283C153.511 62.9425 151.957 62.3171 150.802 61.1889C149.648 60.0606 148.987 58.5213 148.964 56.9071L148.649 29.4021C148.634 27.7879 149.26 26.2336 150.388 25.0791C151.516 23.9245 153.056 23.2635 154.67 23.2405C156.283 23.2253 157.837 23.8491 158.993 24.9758C160.148 26.1025 160.81 27.6406 160.835 29.254Z" fill="#6FAFDE"/>
<path d="M152.683 52.6143C151.419 53.1204 150.402 54.1001 149.85 55.3446C149.297 56.5891 149.253 58.0001 149.725 59.2771L157.967 81.5582C158.399 82.7614 159.091 83.8544 159.993 84.7596C160.896 85.6647 161.987 86.3595 163.189 86.7946C164.391 87.2297 165.674 87.3943 166.947 87.2766C168.219 87.159 169.451 86.762 170.552 86.1139C171.606 85.494 172.517 84.6587 173.225 83.6626C173.934 82.6665 174.424 81.532 174.665 80.3334C174.905 79.1347 174.889 77.8989 174.619 76.7067C174.348 75.5145 173.829 74.3928 173.096 73.4149L158.806 54.3341C158.117 53.4134 157.143 52.7458 156.036 52.4348C154.929 52.1239 153.75 52.187 152.683 52.6143Z" fill="#6FAFDE"/>
<path d="M163.181 79.9584C163.543 80.5682 164.09 81.047 164.742 81.3255C165.394 81.6039 166.118 81.6676 166.809 81.5074C167.5 81.3471 168.122 80.9711 168.585 80.4339C169.048 79.8967 169.328 79.2262 169.384 78.5192C169.441 77.8123 169.271 77.1058 168.899 76.5018C168.527 75.8979 167.973 75.4279 167.316 75.1599C166.66 74.8919 165.935 74.8397 165.247 75.011C164.559 75.1823 163.943 75.5681 163.489 76.1127C163.047 76.6434 162.78 77.2981 162.725 77.9867C162.669 78.6754 162.829 79.3641 163.181 79.9584Z" fill="#6FAFDE"/>
<path d="M152.713 59.2341C152.992 59.7026 153.412 60.0703 153.913 60.2842C154.414 60.498 154.97 60.5469 155.501 60.4237C156.031 60.3004 156.509 60.0115 156.864 59.5987C157.22 59.186 157.435 58.6708 157.478 58.1277C157.522 57.5846 157.391 57.0418 157.105 56.5779C156.82 56.1141 156.394 55.7531 155.889 55.5474C155.385 55.3417 154.828 55.3019 154.299 55.4337C153.771 55.5654 153.298 55.8621 152.949 56.2805C152.61 56.6884 152.405 57.1912 152.363 57.72C152.32 58.2488 152.443 58.7777 152.713 59.2341Z" fill="#6FAFDE"/>
<path d="M151.474 33.7417C150.249 33.1529 149.301 32.1101 148.832 30.8344C148.363 29.5587 148.409 28.1504 148.961 26.9082L158.653 5.22302C159.162 4.05096 159.924 3.00579 160.884 2.16204C161.844 1.31829 162.979 0.696765 164.206 0.341786C165.434 -0.0131931 166.725 -0.0928759 167.987 0.108421C169.249 0.309719 170.451 0.787035 171.508 1.50633C172.516 2.19441 173.369 3.08745 174.009 4.12718C174.649 5.1669 175.063 6.32995 175.224 7.54043C175.384 8.75091 175.288 9.98163 174.94 11.1523C174.593 12.323 174.003 13.4072 173.208 14.3344L157.7 32.4319C156.951 33.3055 155.936 33.9076 154.81 34.1451C153.684 34.3826 152.512 34.2421 151.474 33.7455V33.7417Z" fill="#6FAFDE"/>
<path d="M153.99 31.213C154.535 31.2331 155.072 31.0794 155.523 30.7741C155.974 30.4687 156.317 30.0276 156.501 29.5147C156.685 29.0017 156.701 28.4435 156.546 27.921C156.392 27.3984 156.075 26.9385 155.642 26.608C155.208 26.2775 154.681 26.0934 154.136 26.0825C153.591 26.0716 153.057 26.2344 152.611 26.5474C152.165 26.8603 151.83 27.3071 151.655 27.8231C151.48 28.3391 151.473 28.8974 151.636 29.4173C151.795 29.9231 152.107 30.3673 152.528 30.6888C152.95 31.0103 153.46 31.1935 153.99 31.213Z" fill="#6FAFDE"/>
<path d="M166.392 12.4143C167.1 12.4376 167.798 12.2351 168.383 11.836C168.969 11.437 169.412 10.8621 169.65 10.1945C169.887 9.52681 169.906 8.80096 169.704 8.12182C169.502 7.44268 169.089 6.84543 168.525 6.41638C167.961 5.98733 167.275 5.74871 166.567 5.735C165.858 5.72129 165.164 5.93321 164.584 6.34012C164.003 6.74704 163.568 7.32787 163.339 7.99868C163.111 8.66949 163.102 9.39553 163.313 10.0719C163.521 10.7329 163.929 11.3132 164.48 11.7327C165.032 12.1522 165.7 12.3904 166.392 12.4143Z" fill="#6FAFDE"/>
<path d="M3.99366 92.3201C1.89255 86.615 0.594416 80.6456 0.136501 74.5832C-0.801214 61.4097 3.1053 51.1024 11.4574 44.8193C17.5583 40.2294 24.2665 38.9007 30.8685 40.9773C38.4803 43.3691 44.5356 49.9559 46.2554 53.6536L42.6526 56.1137C41.5136 53.646 36.434 47.9172 29.8359 45.8443C24.2741 44.0942 18.8263 45.1876 13.6328 49.0941C6.6018 54.3901 3.44318 62.8181 4.24802 74.1504C4.67143 79.6105 5.83624 84.9875 7.71035 90.1333L3.99366 92.3201Z" fill="#6FAFDE"/>
<path d="M49.3996 49.491L37.8428 56.1328L39.667 59.3069L51.2237 52.6651L49.3996 49.491Z" fill="#6FAFDE"/>
<path d="M90.043 33.457H108.797V53.84H90.043C87.3395 53.84 84.7468 52.7661 82.8352 50.8544C80.9236 48.9428 79.8496 46.3501 79.8496 43.6466C79.8506 40.9438 80.925 38.3521 82.8365 36.4413C84.7481 34.5305 87.3402 33.457 90.043 33.457Z" fill="#6FAFDE"/>
<path d="M52.5854 86.4077L36.4297 61.3965L31.2093 64.7685L47.365 89.7797L52.5854 86.4077Z" fill="#6FAFDE"/>
<path d="M1.29043 101.775C0.126937 99.9642 -0.269913 97.7657 0.18714 95.6627C0.644193 93.5597 1.91773 91.7243 3.72773 90.5601L45.4883 63.6738L54.2694 77.3409L12.5088 104.227C11.6113 104.803 10.6091 105.197 9.55944 105.385C8.50978 105.574 7.43327 105.553 6.39143 105.326C5.34958 105.098 4.36284 104.667 3.48758 104.058C2.61232 103.448 1.86572 102.673 1.29043 101.775Z" fill="#6FAFDE"/>
<path d="M50.6631 90.2634L95.8405 56.8056C98.6356 54.7327 100.535 51.6716 101.151 48.2467C101.766 44.8217 101.053 41.2908 99.1548 38.374C97.2601 35.4542 94.3228 33.3673 90.9421 32.5391C87.5614 31.7108 83.9921 32.2037 80.9623 33.917L32.1328 61.5777L50.6631 90.2634Z" fill="#6FAFDE"/>
<path d="M92.4308 53.2103C90.9753 54.1536 89.2728 54.6443 87.5384 54.6204C85.8041 54.5965 84.1158 54.0591 82.6867 53.0761C81.2577 52.093 80.1521 50.7084 79.5097 49.0973C78.8673 47.4861 78.7168 45.7207 79.0774 44.0241C79.4379 42.3275 80.2932 40.7758 81.5353 39.5651C82.7774 38.3544 84.3504 37.539 86.0557 37.222C87.761 36.905 89.522 37.1006 91.1162 37.784C92.7104 38.4674 94.0662 39.608 95.0124 41.0617C95.6407 42.0289 96.0723 43.1103 96.2826 44.2443C96.4929 45.3783 96.4778 46.5426 96.2381 47.6707C95.9983 48.7989 95.5387 49.8687 94.8855 50.8192C94.2322 51.7697 93.3981 52.5822 92.4308 53.2103ZM84.8874 41.5932C84.0449 42.1406 83.3837 42.9255 82.9874 43.8486C82.591 44.7718 82.4773 45.7918 82.6607 46.7795C82.844 47.7673 83.3161 48.6785 84.0173 49.398C84.7185 50.1175 85.6173 50.6128 86.6 50.8215C87.5827 51.0301 88.6053 50.9427 89.5383 50.5702C90.4714 50.1977 91.273 49.5569 91.8418 48.7289C92.4107 47.9008 92.7212 46.9226 92.7342 45.9181C92.7471 44.9135 92.4619 43.9277 91.9145 43.0852C91.1792 41.9571 90.0266 41.1665 88.7093 40.8869C87.392 40.6072 86.0176 40.8612 84.8874 41.5932Z" fill="#6FAFDE"/>
<path d="M126.192 146.07C121.577 151.316 115.068 154.514 108.096 154.96C101.124 155.406 94.2596 153.065 89.0137 148.451L39.4249 104.83C34.1799 100.214 30.9827 93.704 30.5363 86.7315C30.0899 79.7589 32.4309 72.8945 37.0446 67.6476C41.6603 62.4025 48.1702 59.2053 55.1428 58.759C62.1153 58.3126 68.9797 60.6536 74.2267 65.2672L123.831 108.884C129.074 113.503 132.269 120.015 132.711 126.988C133.154 133.962 130.809 140.825 126.192 146.07Z" fill="#6FAFDE"/>
<path d="M45.2449 74.8654C43.4335 76.9249 42.2734 79.4754 41.9114 82.1942C41.5494 84.913 42.0017 87.678 43.2111 90.1398C44.4205 92.6015 46.3328 94.6494 48.706 96.0244C51.0793 97.3994 53.807 98.0398 56.5442 97.8646C59.2814 97.6894 61.9051 96.7065 64.0837 95.0402C66.2623 93.3738 67.8979 91.0989 68.7836 88.5031C69.6694 85.9072 69.7655 83.107 69.0598 80.4566C68.3542 77.8061 66.8784 75.4244 64.8192 73.6126C63.4518 72.4095 61.8607 71.4875 60.1369 70.8993C58.413 70.3111 56.5902 70.0682 54.7726 70.1846C52.9549 70.3009 51.1779 70.7742 49.5431 71.5773C47.9084 72.3805 46.4478 73.4978 45.2449 74.8654ZM61.8922 89.5044C60.8098 90.7375 59.386 91.6219 57.8009 92.0457C56.2158 92.4695 54.5406 92.4137 52.9873 91.8854C51.4339 91.3571 50.0721 90.38 49.074 89.0777C48.076 87.7754 47.4866 86.2063 47.3804 84.569C47.2742 82.9317 47.6559 81.2996 48.4773 79.8793C49.2987 78.4589 50.5229 77.3141 51.995 76.5895C53.4671 75.8649 55.121 75.5932 56.7476 75.8087C58.3741 76.0242 59.9002 76.7172 61.1329 77.8001C62.7853 79.2517 63.7936 81.3002 63.936 83.495C64.0783 85.6899 63.3432 87.8515 61.8922 89.5044Z" fill="#6FAFDE"/>
<path d="M152.067 162.895L148.046 160.325C154.652 149.991 154.652 140.618 148.046 133.215C137.059 120.911 114.752 130.637 114.528 130.736L112.584 126.377C117.125 124.48 121.899 123.195 126.779 122.554C137.447 121.203 146.03 123.788 151.607 130.037C159.671 139.076 159.838 150.743 152.067 162.895Z" fill="#6FAFDE"/>
<path d="M109.436 106.146C115.779 106.146 121.863 108.666 126.348 113.152C130.834 117.637 133.354 123.721 133.354 130.064V150.625H85.4883V130.087C85.4883 123.743 88.0081 117.66 92.4935 113.175C96.9789 108.689 103.062 106.169 109.406 106.169L109.436 106.146Z" fill="#6FAFDE"/>
<path d="M102.573 121.507C100.946 122.917 99.7732 124.779 99.2038 126.856C98.6344 128.933 98.6938 131.132 99.3744 133.175C100.055 135.218 101.326 137.014 103.027 138.335C104.728 139.655 106.783 140.442 108.931 140.595C111.079 140.748 113.225 140.26 115.096 139.194C116.967 138.128 118.48 136.53 119.443 134.604C120.406 132.678 120.777 130.509 120.507 128.372C120.238 126.236 119.341 124.227 117.93 122.6C116.037 120.42 113.357 119.08 110.478 118.875C107.598 118.67 104.755 119.617 102.573 121.507ZM113.962 134.654C112.99 135.497 111.788 136.034 110.511 136.195C109.233 136.356 107.936 136.135 106.784 135.559C105.633 134.983 104.677 134.078 104.04 132.96C103.402 131.841 103.11 130.558 103.202 129.273C103.293 127.989 103.763 126.76 104.553 125.743C105.342 124.726 106.416 123.965 107.638 123.558C108.86 123.151 110.175 123.116 111.417 123.456C112.659 123.796 113.772 124.497 114.615 125.47C115.746 126.775 116.313 128.475 116.191 130.197C116.068 131.919 115.267 133.522 113.962 134.654Z" fill="#6FAFDE"/>
<path d="M141.262 148.207H80.0596V166.191H141.262V148.207Z" fill="#6FAFDE"/>
<path d="M162.121 173.291H53.35C53.2922 173.795 53.263 174.302 53.2627 174.81V227.022H162.22V174.813C162.216 174.304 162.183 173.796 162.121 173.291Z" fill="#6FAFDE"/>
<path d="M138.638 156.859H77.3185C64.1981 160.424 54.597 166.563 53.5947 175.272H162.366C161.364 166.571 151.762 160.424 138.638 156.859Z" fill="#6FAFDE"/>
<path d="M168.402 211.137H51.043V227.025H168.402V211.137Z" fill="#6FAFDE"/>
<path d="M97.6086 188.389C97.2237 188.389 96.8426 188.313 96.487 188.166C96.1314 188.019 95.8083 187.803 95.5362 187.531C95.264 187.258 95.0481 186.935 94.9008 186.58C94.7535 186.224 94.6777 185.843 94.6777 185.458C94.6777 185.073 94.7535 184.692 94.9008 184.337C95.0481 183.981 95.264 183.658 95.5362 183.386C95.8083 183.114 96.1314 182.898 96.487 182.75C96.8426 182.603 97.2237 182.527 97.6086 182.527C97.9935 182.527 98.3746 182.603 98.7301 182.75C99.0857 182.898 99.4088 183.114 99.681 183.386C99.9531 183.658 100.169 183.981 100.316 184.337C100.464 184.692 100.539 185.073 100.539 185.458C100.539 186.235 100.231 186.981 99.681 187.531C99.1313 188.08 98.3859 188.389 97.6086 188.389Z" fill="#6FAFDE"/>
<path d="M107.546 188.389C107.161 188.389 106.78 188.313 106.425 188.166C106.069 188.018 105.746 187.802 105.474 187.53C105.202 187.258 104.986 186.935 104.838 186.579C104.691 186.224 104.615 185.843 104.615 185.458C104.614 185.072 104.688 184.69 104.835 184.333C104.982 183.976 105.197 183.651 105.47 183.378C105.742 183.105 106.066 182.888 106.422 182.74C106.778 182.592 107.16 182.516 107.546 182.516C108.323 182.517 109.067 182.826 109.616 183.375C110.165 183.925 110.473 184.67 110.473 185.446C110.475 185.832 110.4 186.214 110.254 186.571C110.107 186.927 109.892 187.252 109.62 187.525C109.348 187.798 109.025 188.015 108.669 188.163C108.313 188.312 107.932 188.388 107.546 188.389Z" fill="#6FAFDE"/>
<path d="M117.477 188.389C116.699 188.389 115.954 188.08 115.404 187.531C114.855 186.981 114.546 186.235 114.546 185.458C114.546 185.073 114.622 184.692 114.769 184.337C114.916 183.981 115.132 183.658 115.404 183.386C115.676 183.114 116 182.898 116.355 182.75C116.711 182.603 117.092 182.527 117.477 182.527C117.862 182.527 118.243 182.603 118.598 182.75C118.954 182.898 119.277 183.114 119.549 183.386C119.821 183.658 120.037 183.981 120.184 184.337C120.332 184.692 120.408 185.073 120.408 185.458C120.408 185.843 120.332 186.224 120.184 186.58C120.037 186.935 119.821 187.258 119.549 187.531C119.277 187.803 118.954 188.019 118.598 188.166C118.243 188.313 117.862 188.389 117.477 188.389Z" fill="#6FAFDE"/>
<path d="M127.408 188.389C126.631 188.389 125.886 188.08 125.336 187.531C124.786 186.981 124.478 186.235 124.478 185.458C124.478 185.073 124.553 184.692 124.701 184.337C124.848 183.981 125.064 183.658 125.336 183.386C125.608 183.114 125.931 182.898 126.287 182.75C126.642 182.603 127.023 182.527 127.408 182.527C127.793 182.527 128.174 182.603 128.53 182.75C128.886 182.898 129.209 183.114 129.481 183.386C129.753 183.658 129.969 183.981 130.116 184.337C130.263 184.692 130.339 185.073 130.339 185.458C130.339 185.843 130.263 186.224 130.116 186.58C129.969 186.935 129.753 187.258 129.481 187.531C129.209 187.803 128.886 188.019 128.53 188.166C128.174 188.313 127.793 188.389 127.408 188.389Z" fill="#6FAFDE"/>
<path d="M71.1033 166.29C72.8914 163.72 75.5679 161.909 78.2254 160.314H76.9346C74.2771 161.909 71.6006 163.731 69.8125 166.29H71.1033Z" fill="#6FAFDE"/>
<path d="M74.1725 166.29C75.953 163.72 78.6333 161.909 81.2832 160.314H79.9962C77.3387 161.909 74.6622 163.731 72.8779 166.29H74.1725Z" fill="#6FAFDE"/>
<path d="M77.2438 166.29C79.0319 163.72 81.6894 161.909 84.3469 160.314H83.0599C80.4024 161.909 77.7449 163.731 75.9492 166.29H77.2438Z" fill="#6FAFDE"/>
<path d="M80.3161 166.29C82.089 163.72 84.7655 161.909 87.4116 160.314H86.1246C83.4671 161.909 80.8096 163.731 79.0215 166.29H80.3161Z" fill="#6FAFDE"/>
<path d="M83.3836 166.29C85.1565 163.72 87.833 161.909 90.4753 160.314H89.1845C86.527 161.909 83.8695 163.731 82.0928 166.29H83.3836Z" fill="#6FAFDE"/>
<path d="M86.4539 166.29C88.2192 163.72 90.8995 161.909 93.538 160.314H92.2472C89.6087 161.909 86.9322 163.731 85.1631 166.29H86.4539Z" fill="#6FAFDE"/>
<path d="M89.5252 166.29C91.2867 163.72 93.9632 161.909 96.6017 160.314H95.3109C92.6724 161.909 89.9959 163.731 88.2344 166.29H89.5252Z" fill="#6FAFDE"/>
<path d="M134.32 56.1859L134.426 64.5996L173.415 64.1096L173.309 55.6959L134.32 56.1859Z" fill="#4D437B" stroke="#231F20" stroke-width="3.5236" stroke-miterlimit="10"/>
<path d="M161.407 54.9491L161.531 64.8152C162.273 65.7035 163.205 66.4147 164.258 66.8969C165.311 67.3791 166.458 67.6201 167.616 67.6023L174.748 67.4931L174.526 51.9082L167.39 52.0139C166.238 52.029 165.103 52.3001 164.068 52.8078C163.033 53.3154 162.125 54.0468 161.407 54.9491Z" fill="white" stroke="#231F20" stroke-width="3.5236" stroke-miterlimit="10"/>
<path d="M174.5 50.432L174.731 68.8555L176.965 68.8274L176.734 50.4039L174.5 50.432Z" fill="#4D437B" stroke="#231F20" stroke-width="3.5236" stroke-miterlimit="10"/>
<path d="M225.675 87.6484L225.739 92.0389L192.511 100.09L192.342 88.1136L225.675 87.6484Z" fill="#4D437B" stroke="#231F20" stroke-width="3.5236" stroke-miterlimit="10"/>
<path d="M225.608 33.8354L225.724 29.445L192.602 20.9707L192.281 32.9439L225.608 33.8354Z" fill="#4D437B" stroke="#231F20" stroke-width="3.5236" stroke-miterlimit="10"/>
<path d="M187.908 47.4332L188.2 72.9617C188.215 74.4618 187.635 75.9066 186.587 76.9798C185.539 78.0531 184.108 78.6671 182.608 78.6876C181.11 78.7008 179.667 78.1204 178.596 77.0732C177.524 76.026 176.911 74.5973 176.889 73.0991L176.597 47.5706C176.584 46.0724 177.164 44.6299 178.211 43.5583C179.258 42.4867 180.687 41.8732 182.185 41.8518C183.683 41.8377 185.125 42.4167 186.197 43.4624C187.27 44.5082 187.884 45.9357 187.908 47.4332Z" fill="white" stroke="#231F20" stroke-width="3.5236" stroke-miterlimit="10"/>
<path d="M180.341 69.1148C179.168 69.5845 178.225 70.4938 177.712 71.6488C177.199 72.8039 177.158 74.1135 177.596 75.2987L185.246 95.9788C185.647 97.0954 186.289 98.11 187.127 98.95C187.964 99.7901 188.977 100.435 190.092 100.839C191.208 101.243 192.399 101.395 193.58 101.286C194.762 101.177 195.904 100.809 196.927 100.207C197.905 99.6317 198.75 98.8564 199.408 97.9319C200.066 97.0074 200.521 95.9544 200.744 94.8419C200.966 93.7294 200.952 92.5824 200.701 91.4759C200.45 90.3693 199.969 89.3282 199.288 88.4206L186.025 70.711C185.385 69.8564 184.482 69.2368 183.454 68.9482C182.426 68.6596 181.332 68.7181 180.341 69.1148Z" fill="white" stroke="#231F20" stroke-width="3.5236" stroke-miterlimit="10"/>
<path d="M190.086 94.4942C190.422 95.0602 190.929 95.5046 191.535 95.763C192.14 96.0215 192.812 96.0806 193.453 95.9319C194.094 95.7831 194.672 95.4342 195.101 94.9356C195.531 94.437 195.791 93.8146 195.843 93.1585C195.896 92.5024 195.738 91.8466 195.393 91.286C195.048 90.7255 194.534 90.2893 193.924 90.0405C193.315 89.7918 192.642 89.7434 192.003 89.9024C191.365 90.0613 190.793 90.4194 190.371 90.9248C189.961 91.4175 189.713 92.0251 189.662 92.6642C189.611 93.3034 189.759 93.9426 190.086 94.4942Z" fill="#4D437B"/>
<path d="M180.37 75.2602C180.628 75.695 181.018 76.0364 181.483 76.2348C181.948 76.4333 182.465 76.4787 182.957 76.3643C183.45 76.2499 183.893 75.9818 184.223 75.5986C184.553 75.2155 184.753 74.7373 184.793 74.2333C184.833 73.7292 184.712 73.2255 184.446 72.7949C184.181 72.3644 183.786 72.0294 183.318 71.8385C182.85 71.6475 182.333 71.6105 181.842 71.7329C181.351 71.8552 180.912 72.1305 180.589 72.5189C180.274 72.8974 180.084 73.3641 180.045 73.8549C180.006 74.3457 180.119 74.8366 180.37 75.2602Z" fill="#4D437B"/>
<path d="M179.219 51.5983C178.082 51.0518 177.202 50.0839 176.767 48.8999C176.332 47.7158 176.374 46.4088 176.886 45.2558L185.882 25.1289C186.355 24.0411 187.062 23.071 187.953 22.2879C188.844 21.5048 189.897 20.9279 191.036 20.5985C192.176 20.269 193.374 20.195 194.545 20.3819C195.717 20.5687 196.833 21.0117 197.813 21.6793C198.749 22.318 199.54 23.1468 200.135 24.1118C200.729 25.0769 201.113 26.1563 201.262 27.2798C201.411 28.4033 201.321 29.5456 200.999 30.6321C200.677 31.7187 200.129 32.725 199.392 33.5856L184.998 50.3826C184.303 51.1934 183.36 51.7523 182.315 51.9727C181.27 52.1931 180.182 52.0627 179.219 51.6018V51.5983Z" fill="white" stroke="#231F20" stroke-width="3.5236" stroke-miterlimit="10"/>
<path d="M181.557 49.2506C182.062 49.2692 182.56 49.1265 182.979 48.8431C183.398 48.5597 183.716 48.1503 183.887 47.6743C184.058 47.1982 184.072 46.6801 183.929 46.1951C183.786 45.71 183.492 45.2832 183.089 44.9765C182.687 44.6697 182.198 44.4989 181.692 44.4888C181.187 44.4786 180.691 44.6297 180.277 44.9202C179.863 45.2106 179.552 45.6253 179.389 46.1042C179.227 46.5831 179.221 47.1014 179.372 47.5839C179.52 48.0533 179.809 48.4656 180.2 48.764C180.591 49.0624 181.065 49.2324 181.557 49.2506Z" fill="#4D437B"/>
<path d="M193.065 31.8034C193.723 31.825 194.37 31.6371 194.913 31.2667C195.457 30.8964 195.868 30.3628 196.089 29.7431C196.309 29.1234 196.327 28.4497 196.139 27.8194C195.951 27.1891 195.568 26.6347 195.045 26.2365C194.521 25.8383 193.885 25.6168 193.227 25.6041C192.57 25.5914 191.925 25.7881 191.387 26.1657C190.848 26.5434 190.444 27.0825 190.232 27.7051C190.02 28.3277 190.011 29.0016 190.208 29.6293C190.4 30.2428 190.779 30.7814 191.291 31.1708C191.803 31.5602 192.423 31.7812 193.065 31.8034Z" fill="#4D437B"/>
<path d="M42.3375 105.968C40.3874 100.673 39.1826 95.1327 38.7576 89.506C37.8872 77.2791 41.513 67.7125 49.2649 61.8809C54.9274 57.6209 61.1536 56.3876 67.2811 58.315C74.346 60.5349 79.9661 66.6484 81.5623 70.0804L78.2184 72.3637C77.1613 70.0733 72.4467 64.7562 66.3227 62.8323C61.1606 61.2079 56.1043 62.2227 51.284 65.8485C44.7582 70.7639 41.8266 78.5863 42.5736 89.1043C42.9666 94.172 44.0477 99.1626 45.7871 103.939L42.3375 105.968Z" fill="#4A4079"/>
<path d="M84.4802 66.2163L73.7539 72.3809L75.447 75.3268L86.1733 69.1623L84.4802 66.2163Z" fill="#4A4079"/>
<path d="M122.204 51.334H139.611V70.2522H122.204C119.695 70.2522 117.288 69.2554 115.514 67.4812C113.74 65.7069 112.743 63.3005 112.743 60.7913C112.744 58.2828 113.741 55.8773 115.515 54.1038C117.29 52.3303 119.695 51.334 122.204 51.334Z" fill="white" stroke="#231F20" stroke-width="3.5236" stroke-miterlimit="10"/>
<path d="M87.4371 100.48L72.4424 77.2656L67.5972 80.3953L82.5919 103.609L87.4371 100.48Z" fill="#4A4079" stroke="#231F20" stroke-width="3.5236" stroke-miterlimit="10"/>
<path d="M39.8287 114.742C38.7488 113.061 38.3805 111.021 38.8047 109.069C39.2289 107.117 40.4109 105.414 42.0909 104.333L80.8505 79.3789L89.0006 92.0639L50.241 117.018C49.4079 117.553 48.4777 117.918 47.5035 118.093C46.5293 118.268 45.5301 118.249 44.5631 118.038C43.5962 117.826 42.6803 117.426 41.868 116.861C41.0556 116.295 40.3626 115.575 39.8287 114.742Z" fill="#4A4079" stroke="#231F20" stroke-width="3.5236" stroke-miterlimit="10"/>
<path d="M85.6538 104.058L127.585 73.0043C130.179 71.0804 131.942 68.2393 132.513 65.0604C133.085 61.8816 132.422 58.6044 130.661 55.8972C128.902 53.1872 126.176 51.2503 123.038 50.4816C119.901 49.7129 116.588 50.1703 113.776 51.7605L68.4551 77.4335L85.6538 104.058Z" fill="white" stroke="#231F20" stroke-width="3.5236" stroke-miterlimit="10"/>
<path d="M124.42 69.6679C123.069 70.5434 121.489 70.9989 119.88 70.9767C118.27 70.9546 116.703 70.4558 115.376 69.5433C114.05 68.6309 113.024 67.3459 112.428 65.8505C111.832 64.3551 111.692 62.7166 112.026 61.1419C112.361 59.5672 113.155 58.127 114.308 57.0033C115.461 55.8796 116.921 55.1228 118.503 54.8286C120.086 54.5343 121.721 54.7158 123.2 55.3502C124.68 55.9845 125.938 57.0431 126.816 58.3924C127.4 59.29 127.8 60.2938 127.995 61.3463C128.191 62.3988 128.177 63.4794 127.954 64.5265C127.732 65.5735 127.305 66.5665 126.699 67.4487C126.092 68.3309 125.318 69.085 124.42 69.6679V69.6679ZM117.419 58.8857C116.637 59.3937 116.023 60.1222 115.656 60.979C115.288 61.8358 115.182 62.7825 115.352 63.6993C115.522 64.6161 115.961 65.4618 116.611 66.1296C117.262 66.7974 118.096 67.2571 119.009 67.4508C119.921 67.6445 120.87 67.5633 121.736 67.2176C122.602 66.8719 123.346 66.2771 123.874 65.5085C124.402 64.74 124.69 63.8321 124.702 62.8997C124.714 61.9674 124.449 61.0524 123.941 60.2705C123.259 59.2234 122.189 58.4897 120.966 58.2301C119.744 57.9705 118.468 58.2063 117.419 58.8857Z" stroke="#231F20" stroke-width="3.5236" stroke-miterlimit="10"/>
<path d="M155.755 155.855C151.472 160.723 145.43 163.691 138.959 164.106C132.488 164.52 126.117 162.347 121.248 158.064L75.2227 117.578C70.3546 113.294 67.3872 107.251 66.9729 100.78C66.5586 94.3085 68.7313 87.9373 73.0134 83.0675C77.2975 78.1993 83.3396 75.2319 89.8111 74.8176C96.2826 74.4033 102.654 76.5761 107.524 80.8582L153.563 121.341C158.43 125.627 161.395 131.672 161.806 138.144C162.217 144.616 160.04 150.987 155.755 155.855Z" fill="white" stroke="#231F20" stroke-width="3.5236" stroke-miterlimit="10"/>
<path d="M80.6246 89.7653C78.9433 91.6768 77.8666 94.044 77.5306 96.5674C77.1946 99.0908 77.6144 101.657 78.7369 103.942C79.8594 106.227 81.6343 108.128 83.837 109.404C86.0397 110.68 88.5714 111.274 91.1119 111.112C93.6524 110.949 96.0876 110.037 98.1096 108.49C100.132 106.944 101.65 104.832 102.472 102.423C103.294 100.014 103.383 97.4147 102.728 94.9547C102.073 92.4947 100.704 90.2841 98.7923 88.6025C97.5231 87.4858 96.0463 86.6301 94.4464 86.0842C92.8464 85.5382 91.1546 85.3128 89.4676 85.4208C87.7805 85.5288 86.1312 85.968 84.6139 86.7135C83.0966 87.4589 81.741 88.4959 80.6246 89.7653V89.7653ZM96.0756 103.352C95.0709 104.497 93.7494 105.318 92.2783 105.711C90.8071 106.104 89.2523 106.053 87.8106 105.562C86.3688 105.072 85.1048 104.165 84.1785 102.956C83.2522 101.748 82.7052 100.291 82.6066 98.7716C82.508 97.2519 82.8623 95.7372 83.6247 94.4189C84.3871 93.1006 85.5233 92.038 86.8896 91.3655C88.2559 90.693 89.791 90.4408 91.3006 90.6408C92.8103 90.8408 94.2268 91.484 95.3708 92.4891C96.9045 93.8364 97.8403 95.7376 97.9725 97.7748C98.1046 99.8119 97.4223 101.818 96.0756 103.352V103.352Z" stroke="#231F20" stroke-width="3.5236" stroke-miterlimit="10"/>
<path d="M179.77 171.471L176.039 169.086C182.17 159.494 182.17 150.795 176.039 143.924C165.842 132.504 145.137 141.531 144.929 141.623L143.125 137.578C147.34 135.817 151.77 134.624 156.3 134.029C166.201 132.775 174.168 135.175 179.344 140.974C186.828 149.364 186.983 160.192 179.77 171.471Z" fill="#4A4079"/>
<path d="M140.202 118.801C146.09 118.801 151.736 121.14 155.899 125.303C160.062 129.466 162.401 135.112 162.401 140.999V160.083H117.976V141.021C117.976 135.133 120.314 129.487 124.477 125.324C128.641 121.161 134.287 118.822 140.174 118.822L140.202 118.801Z" fill="#4A4079" stroke="#231F20" stroke-width="3.5236" stroke-miterlimit="10"/>
<path d="M133.832 133.058C132.322 134.367 131.234 136.095 130.705 138.022C130.177 139.95 130.232 141.991 130.864 143.888C131.495 145.784 132.675 147.451 134.254 148.676C135.833 149.902 137.74 150.632 139.734 150.774C141.728 150.916 143.719 150.464 145.455 149.474C147.192 148.484 148.596 147.002 149.49 145.214C150.384 143.426 150.728 141.413 150.478 139.43C150.228 137.447 149.395 135.582 148.085 134.072C146.329 132.049 143.842 130.806 141.169 130.615C138.496 130.425 135.858 131.304 133.832 133.058V133.058ZM144.403 145.26C143.5 146.043 142.386 146.541 141.2 146.691C140.014 146.84 138.81 146.635 137.741 146.1C136.672 145.566 135.786 144.726 135.194 143.688C134.602 142.649 134.331 141.459 134.416 140.266C134.501 139.074 134.937 137.934 135.67 136.99C136.403 136.045 137.399 135.34 138.533 134.962C139.667 134.584 140.888 134.551 142.04 134.867C143.193 135.183 144.226 135.833 145.009 136.736C146.059 137.947 146.585 139.525 146.471 141.124C146.358 142.722 145.614 144.21 144.403 145.26V145.26Z" stroke="#231F20" stroke-width="4.93305" stroke-miterlimit="10"/>
<path d="M169.742 157.838H112.938V174.529H169.742V157.838Z" fill="#4A4079" stroke="#231F20" stroke-width="3.5236" stroke-miterlimit="10"/>
<path d="M189.102 181.119H88.1475C88.0937 181.587 88.0667 182.058 88.0664 182.529V230.989H189.194V182.532C189.19 182.06 189.16 181.588 189.102 181.119Z" fill="white" stroke="#231F20" stroke-width="3.5236" stroke-miterlimit="10"/>
<path d="M167.306 165.869H110.393C98.2155 169.178 89.3043 174.875 88.374 182.959H189.329C188.399 174.883 179.487 169.178 167.306 165.869Z" fill="white" stroke="#231F20" stroke-width="3.5236" stroke-miterlimit="10"/>
<path d="M194.93 216.246H86.0049V230.992H194.93V216.246Z" fill="#4A4079" stroke="#231F20" stroke-width="3.5236" stroke-miterlimit="10"/>
<path d="M129.225 195.132C128.868 195.132 128.514 195.061 128.184 194.925C127.854 194.788 127.554 194.588 127.302 194.335C127.049 194.083 126.849 193.783 126.712 193.453C126.575 193.123 126.505 192.769 126.505 192.412C126.505 192.054 126.575 191.701 126.712 191.371C126.849 191.041 127.049 190.741 127.302 190.488C127.554 190.236 127.854 190.035 128.184 189.898C128.514 189.762 128.868 189.691 129.225 189.691C129.582 189.691 129.936 189.762 130.266 189.898C130.596 190.035 130.896 190.236 131.149 190.488C131.401 190.741 131.602 191.041 131.738 191.371C131.875 191.701 131.945 192.054 131.945 192.412C131.945 193.133 131.659 193.825 131.149 194.335C130.638 194.845 129.947 195.132 129.225 195.132Z" fill="#4A4079"/>
<path d="M138.449 195.133C138.092 195.133 137.738 195.062 137.408 194.926C137.078 194.789 136.778 194.589 136.525 194.336C136.273 194.083 136.072 193.783 135.936 193.453C135.799 193.123 135.729 192.77 135.729 192.412C135.727 192.054 135.796 191.699 135.933 191.368C136.069 191.037 136.269 190.736 136.522 190.482C136.774 190.228 137.075 190.027 137.405 189.89C137.736 189.752 138.091 189.682 138.449 189.682C139.17 189.683 139.861 189.97 140.37 190.48C140.879 190.99 141.165 191.681 141.165 192.402C141.167 192.76 141.098 193.114 140.962 193.445C140.826 193.776 140.626 194.077 140.374 194.331C140.121 194.585 139.821 194.786 139.491 194.924C139.161 195.061 138.807 195.132 138.449 195.133Z" fill="#4A4079"/>
<path d="M147.666 195.132C146.944 195.132 146.252 194.845 145.742 194.335C145.232 193.825 144.945 193.133 144.945 192.412C144.945 192.054 145.016 191.701 145.152 191.371C145.289 191.041 145.489 190.741 145.742 190.488C145.995 190.236 146.295 190.035 146.625 189.898C146.955 189.762 147.308 189.691 147.666 189.691C148.023 189.691 148.376 189.762 148.707 189.898C149.037 190.035 149.336 190.236 149.589 190.488C149.842 190.741 150.042 191.041 150.179 191.371C150.315 191.701 150.386 192.054 150.386 192.412C150.386 192.769 150.315 193.123 150.179 193.453C150.042 193.783 149.842 194.083 149.589 194.335C149.336 194.588 149.037 194.788 148.707 194.925C148.376 195.061 148.023 195.132 147.666 195.132Z" fill="#4A4079"/>
<path d="M156.883 195.132C156.162 195.132 155.47 194.845 154.96 194.335C154.45 193.825 154.163 193.133 154.163 192.412C154.163 192.054 154.233 191.701 154.37 191.371C154.507 191.041 154.707 190.741 154.96 190.488C155.212 190.236 155.512 190.035 155.842 189.898C156.172 189.762 156.526 189.691 156.883 189.691C157.241 189.691 157.594 189.762 157.924 189.898C158.254 190.035 158.554 190.236 158.807 190.488C159.059 190.741 159.26 191.041 159.396 191.371C159.533 191.701 159.604 192.054 159.604 192.412C159.604 192.769 159.533 193.123 159.396 193.453C159.26 193.783 159.059 194.083 158.807 194.335C158.554 194.588 158.254 194.788 157.924 194.925C157.594 195.061 157.241 195.132 156.883 195.132Z" fill="#4A4079"/>
<path d="M104.625 174.622C106.284 172.237 108.769 170.556 111.235 169.076H110.037C107.571 170.556 105.086 172.247 103.427 174.622H104.625Z" fill="#4A4079" stroke="#231F20" stroke-width="3.17124" stroke-miterlimit="10"/>
<path d="M107.474 174.622C109.127 172.237 111.614 170.556 114.074 169.076H112.879C110.413 170.556 107.929 172.247 106.272 174.622H107.474Z" fill="#4A4079" stroke="#231F20" stroke-width="3.17124" stroke-miterlimit="10"/>
<path d="M110.325 174.622C111.984 172.237 114.451 170.556 116.917 169.076H115.723C113.256 170.556 110.79 172.247 109.123 174.622H110.325Z" fill="#4A4079" stroke="#231F20" stroke-width="3.17124" stroke-miterlimit="10"/>
<path d="M113.176 174.622C114.822 172.237 117.306 170.556 119.762 169.076H118.567C116.101 170.556 113.634 172.247 111.975 174.622H113.176Z" fill="#4A4079" stroke="#231F20" stroke-width="3.17124" stroke-miterlimit="10"/>
<path d="M116.023 174.622C117.669 172.237 120.153 170.556 122.605 169.076H121.407C118.941 170.556 116.474 172.247 114.825 174.622H116.023Z" fill="#4A4079" stroke="#231F20" stroke-width="3.17124" stroke-miterlimit="10"/>
<path d="M118.874 174.622C120.512 172.237 123 170.556 125.449 169.076H124.251C121.802 170.556 119.318 172.247 117.676 174.622H118.874Z" fill="#4A4079" stroke="#231F20" stroke-width="3.17124" stroke-miterlimit="10"/>
<path d="M121.723 174.622C123.358 172.237 125.843 170.556 128.291 169.076H127.093C124.644 170.556 122.16 172.247 120.525 174.622H121.723Z" fill="#4A4079" stroke="#231F20" stroke-width="3.17124" stroke-miterlimit="10"/>
</svg>
