<svg width="210" height="223" viewBox="0 0 210 223" fill="none" xmlns="http://www.w3.org/2000/svg">
<g opacity="0.75">
<path d="M11.8707 55.1352C14.825 89.2854 17.2016 157.181 71.0702 140.217C85.5197 135.667 98.352 129.727 101.064 113.495C103.258 100.369 86.5296 99.3443 79.5115 108.489C70.4738 120.265 67.0486 133.227 68.5037 149.874C69.7567 164.209 71.6269 174.395 82.3342 184.022C100.845 200.664 124.944 193.577 146.585 181.162C163.104 171.684 173.78 165.267 184.278 153.663C185.982 151.779 196.282 139.411 196.107 139.992C193.018 150.264 186.071 164.323 181.235 174.026C179.744 177.145 178.818 179.512 177.579 182.031C176.675 183.868 179.144 178.424 179.744 177.145C184.89 166.17 191.237 153.327 195.481 141.968C198.141 134.85 183.011 138.099 177.286 140.057C168.091 143.203 160.111 145.934 153.43 147.149" stroke="#353333" stroke-width="6" stroke-linecap="round"/>
<path d="M12.4429 47.5409C15.3973 81.6912 17.7739 149.587 71.6425 132.623C86.0919 128.073 98.9243 122.133 101.637 105.901C103.83 92.775 87.1018 91.75 80.0838 100.895C71.0461 112.671 67.6209 125.633 69.076 142.28C70.329 156.615 72.1992 166.801 82.9065 176.427C101.418 193.07 125.516 185.983 147.157 173.567C163.676 164.09 174.353 157.673 184.85 146.069C186.554 144.185 196.854 131.817 196.679 132.398C193.591 142.67 186.643 156.729 181.807 166.431C180.316 169.551 179.391 171.918 178.151 174.437C177.247 176.274 179.716 170.83 180.316 169.551C185.462 158.576 191.809 145.733 196.054 134.374C198.714 127.256 183.583 130.504 177.858 132.463C168.664 135.609 160.684 138.34 154.002 139.555" stroke="#EAFDFF" stroke-width="6" stroke-linecap="round"/>
</g>
</svg>
