<svg width="139" height="139" viewBox="0 0 139 139" fill="none" xmlns="http://www.w3.org/2000/svg">
<path d="M70.4532 47.6426L71.3869 49.583L72.718 47.8903L99.9067 13.3146L85.3673 54.8274L84.6555 56.8597L86.7936 56.604L130.468 51.3805L90.8328 70.4536L88.8924 71.3874L90.5851 72.7185L125.161 99.9071L83.6481 85.3678L81.6158 84.656L81.8715 86.7941L87.0949 130.468L68.0218 90.8333L67.088 88.8929L65.757 90.5856L38.5683 125.161L53.1077 83.6485L53.8195 81.6162L51.6813 81.8719L8.00729 87.0954L47.6422 68.0223L49.5825 67.0885L47.8898 65.7575L13.3141 38.5688L54.8269 53.1081L56.8592 53.8199L56.6035 51.6818L51.3801 8.00775L70.4532 47.6426Z" fill="#E26B65" stroke="black" stroke-width="2.68474"/>
</svg>
