<svg width="30" height="29" viewBox="0 0 30 29" fill="none" xmlns="http://www.w3.org/2000/svg">
<path d="M24.5275 9.57021C24.5423 9.78326 24.5423 9.99631 24.5423 10.2113C24.5423 16.7628 19.5548 24.3186 10.435 24.3186V24.3147C7.74095 24.3186 5.10289 23.5469 2.83496 22.0919C3.22669 22.139 3.62039 22.1626 4.01507 22.1636C6.24765 22.1655 8.41642 21.4164 10.1728 20.037C8.05119 19.9968 6.19071 18.6134 5.54076 16.5939C6.28398 16.7373 7.04977 16.7078 7.77924 16.5085C5.46615 16.0412 3.80202 14.0089 3.80202 11.6487C3.80202 11.6271 3.80202 11.6064 3.80202 11.5858C4.49123 11.9697 5.26292 12.1827 6.05227 12.2063C3.87369 10.7503 3.20215 7.85209 4.51774 5.58612C7.03504 8.68366 10.7491 10.5667 14.7362 10.766C14.3366 9.04397 14.8825 7.23945 16.1706 6.02891C18.1675 4.15173 21.3083 4.24795 23.1854 6.24392C24.2958 6.02498 25.3601 5.61754 26.334 5.04025C25.9639 6.18796 25.1893 7.16287 24.1544 7.78238C25.1372 7.66653 26.0974 7.40341 27.0016 7.00186C26.336 7.99935 25.4975 8.86823 24.5275 9.57021Z" fill="black"/>
</svg>
