<svg width="159" height="104" viewBox="0 0 159 104" fill="none" xmlns="http://www.w3.org/2000/svg">
<path d="M100.302 21.9757C120.321 5.76555 138.274 0.844825 146.536 1.0037H157.499V17.2093V69.6393C147.585 79.5534 136.209 86.7983 131.76 89.1814C111.17 99.0955 93.6295 94.9011 87.4332 91.5646C62.6481 84.3197 47.2369 96.1721 42.6294 103.004H1.63867V60.5832C14.2219 34.2729 42.7883 28.6486 55.4986 29.1253C87.7302 32.1588 96.0951 25.3835 100.234 22.0314L100.302 21.9757Z" fill="#FCDBE2"/>
<path d="M1.63867 60.5832C14.2219 34.2729 42.7883 28.6486 55.4986 29.1253C87.9099 32.1757 96.1876 25.3076 100.302 21.9757C120.321 5.76555 138.274 0.844825 146.536 1.0037H157.499V17.2093M1.63867 60.5832H42.6294M1.63867 60.5832V103.004H42.6294M42.6294 60.5832C47.2369 53.1159 63.3154 40.2785 90.7697 48.6673C99.3491 50.8916 120.226 52.0038 135.097 38.658L157.499 17.2093M42.6294 60.5832V103.004M157.499 17.2093V69.6393C147.585 79.5534 136.209 86.7983 131.76 89.1814C111.17 99.0955 93.6295 94.9011 87.4332 91.5646C62.6481 84.3197 47.2369 96.1721 42.6294 103.004" stroke="black" stroke-width="1.90655"/>
<path d="M22.1338 50.5703H23.0871" stroke="black" stroke-width="1.90655"/>
<path d="M20.7041 43.8965H21.6574" stroke="black" stroke-width="1.90655"/>
<path d="M27.377 44.8496H28.3302" stroke="black" stroke-width="1.90655"/>
<path d="M31.1904 38.1777H32.1437" stroke="black" stroke-width="1.90655"/>
<path d="M41.6758 34.3652H42.6291" stroke="black" stroke-width="1.90655"/>
<path d="M55.0215 32.457H55.9748" stroke="black" stroke-width="1.90655"/>
<path d="M32.1436 49.6172H33.0968" stroke="black" stroke-width="1.90655"/>
<path d="M36.9102 40.084H37.8634" stroke="black" stroke-width="1.90655"/>
<path d="M42.6299 45.8047H43.5832" stroke="black" stroke-width="1.90655"/>
<path d="M41.6758 52.4766H42.6291" stroke="black" stroke-width="1.90655"/>
<path d="M27.377 56.2891H28.3302" stroke="black" stroke-width="1.90655"/>
<path d="M12.125 54.3828H13.0783" stroke="black" stroke-width="1.90655"/>
<path d="M49.3027 39.1309H50.256" stroke="black" stroke-width="1.90655"/>
<path d="M55.0215 41.0371H55.9748" stroke="black" stroke-width="1.90655"/>
<path d="M63.6016 39.1309H64.5548" stroke="black" stroke-width="1.90655"/>
<path d="M73.1338 35.3184H74.0871" stroke="black" stroke-width="1.90655"/>
<path d="M89.3398 40.084H90.2931" stroke="black" stroke-width="1.90655"/>
<path d="M101.732 28.6445H102.686" stroke="black" stroke-width="1.90655"/>
<path d="M118.892 35.3184H119.845" stroke="black" stroke-width="1.90655"/>
<path d="M117.938 26.7383H118.891" stroke="black" stroke-width="1.90655"/>
<path d="M126.518 9.58008H127.471" stroke="black" stroke-width="1.90655"/>
<path d="M130.33 18.1582H131.283" stroke="black" stroke-width="1.90655"/>
<path d="M144.63 18.1582H145.583" stroke="black" stroke-width="1.90655"/>
</svg>
