<svg width="117" height="130" viewBox="0 0 117 130" fill="none" xmlns="http://www.w3.org/2000/svg">
<path d="M-14 3L112.867 38.241L74.494 65.6506L58.8313 127.518L-14 108.723V42.1566V3Z" fill="#FCDBE2"/>
<path d="M74.494 65.6506L112.867 38.241L-14 3V42.1566M74.494 65.6506L58.8313 127.518L-14 108.723V42.1566M74.494 65.6506L-14 42.1566" stroke="black" stroke-width="3.13253"/>
<path d="M96.4215 107.156L59.6143 129.084L75.2769 65.6498L116 37.457L96.4215 107.156Z" fill="#010000"/>
<circle cx="46.6923" cy="71.5243" r="1.1747" fill="#010000"/>
<circle cx="46.6923" cy="82.4872" r="1.1747" fill="#010000"/>
<circle cx="46.6923" cy="93.452" r="1.1747" fill="#010000"/>
<circle cx="46.6923" cy="104.415" r="1.1747" fill="#010000"/>
<circle cx="46.6923" cy="115.38" r="1.1747" fill="#010000"/>
<circle cx="59.2206" cy="69.9579" r="1.1747" fill="#010000"/>
<circle cx="59.2206" cy="80.9208" r="1.1747" fill="#010000"/>
<circle cx="59.2206" cy="91.8856" r="1.1747" fill="#010000"/>
<circle cx="59.2206" cy="102.849" r="1.1747" fill="#010000"/>
<circle cx="9.10146" cy="62.1278" r="1.1747" fill="#010000"/>
<circle cx="9.10146" cy="73.0907" r="1.1747" fill="#010000"/>
<circle cx="9.10146" cy="84.0556" r="1.1747" fill="#010000"/>
<circle cx="9.10146" cy="95.0184" r="1.1747" fill="#010000"/>
<circle cx="9.10146" cy="105.983" r="1.1747" fill="#010000"/>
<circle cx="21.6317" cy="57.4286" r="1.1747" fill="#010000"/>
<circle cx="21.6317" cy="112.247" r="1.1747" fill="#010000"/>
<circle cx="21.6317" cy="68.3915" r="1.1747" fill="#010000"/>
<circle cx="21.6317" cy="79.3563" r="1.1747" fill="#010000"/>
<circle cx="21.6317" cy="90.3192" r="1.1747" fill="#010000"/>
<circle cx="21.6317" cy="101.284" r="1.1747" fill="#010000"/>
<circle cx="34.161" cy="65.2606" r="1.1747" fill="#010000"/>
<circle cx="34.161" cy="76.2235" r="1.1747" fill="#010000"/>
<circle cx="34.161" cy="87.1884" r="1.1747" fill="#010000"/>
<circle cx="34.161" cy="98.1513" r="1.1747" fill="#010000"/>
<circle cx="34.161" cy="109.116" r="1.1747" fill="#010000"/>
</svg>
