<svg width="37" height="29" viewBox="0 0 37 29" fill="none" xmlns="http://www.w3.org/2000/svg">
<path d="M31.4346 8.8242C31.2818 8.27917 30.984 7.78573 30.573 7.39634C30.1504 6.99497 29.6324 6.70785 29.068 6.5621C26.9555 6.00558 18.4921 6.00558 18.4921 6.00558C14.9638 5.96545 11.4364 6.14192 7.9298 6.534C7.36534 6.69051 6.84833 6.98404 6.42475 7.38847C6.00856 7.78872 5.7071 8.28229 5.54962 8.82308C5.17133 10.86 4.98752 12.9283 5.00069 15C4.9872 17.0698 5.17055 19.1374 5.54962 21.1769C5.70372 21.7155 6.00406 22.2068 6.42138 22.6037C6.8387 23.0005 7.35838 23.2872 7.9298 23.439C10.0704 23.9944 18.4921 23.9944 18.4921 23.9944C22.0249 24.0346 25.5568 23.8581 29.068 23.466C29.6324 23.3202 30.1504 23.0331 30.573 22.6318C30.9839 22.2424 31.2813 21.7489 31.4335 21.2039C31.8217 19.1677 32.0104 17.0986 31.9971 15.0259C32.0263 12.9443 31.8378 10.8654 31.4346 8.82308V8.8242ZM15.8015 18.8496V11.1515L22.843 15.0011L15.8015 18.8496Z" fill="#111111"/>
</svg>
